<?xml version="1.0" encoding="UTF-8"?>
<!DOCTYPE svg PUBLIC "-//W3C//DTD SVG 1.1//EN" "http://www.w3.org/Graphics/SVG/1.1/DTD/svg11.dtd">
<!-- Creator: CorelDRAW 2019 (64-Bit) -->
<svg xmlns="http://www.w3.org/2000/svg" xml:space="preserve" width="114.504mm" height="50.5518mm" version="1.1" style="shape-rendering:geometricPrecision; text-rendering:geometricPrecision; image-rendering:optimizeQuality; fill-rule:evenodd; clip-rule:evenodd"
viewBox="0 0 11444.62 5052.65"
 xmlns:xlink="http://www.w3.org/1999/xlink"
 xmlns:xodm="http://www.corel.com/coreldraw/odm/2003">
 <defs>
  <style type="text/css">
   <![CDATA[
    .fil0 {fill:#1B396A}
   ]]>
  </style>
 </defs>
 <g id="Capa_x0020_1">
  <metadata id="CorelCorpID_0Corel-Layer"/>
  <g id="_2318863967184">
   <path class="fil0" d="M2037.96 3176.45c82.66,139.95 -42.21,514.13 -214.1,545.56 -449.56,-96.2 -722.61,-703.9 -681.21,-1124.99 6.43,0.84 12.8,1.63 19.05,2.23 1.47,18.02 9.29,50.11 13.81,67.88 84.49,330.76 497.22,693.1 862.45,509.32zm-1231.48 1056.36c-41.14,-446.87 -15.77,-1261.45 178.04,-1669.91 43.32,8.65 85.25,21.81 129.88,29.6 -0.54,7.15 -4.21,59.51 -4.48,64.23 -39.06,603.32 198.69,985.82 548.06,1161.32 -38.55,392.41 -534.71,479.91 -851.5,414.77zm1683.76 -2362.1c70.36,179.67 62.74,424.24 -96.65,522.72 -55.26,34.08 -77.1,-3.6 -36.84,-45.43 31.19,-32.35 29.81,-100.53 19.77,-136.01 -41.67,-147.83 -316.64,-243.85 -447.07,-283.93 50.32,-186.55 24.01,-374.56 -52.76,-549.76 261.3,75.08 510.19,228.32 613.55,492.41zm-712.34 1118.88c106.07,90.61 266.44,24.16 178.98,90.49 -287.14,217.71 -709.48,-161.16 -766.18,-478.62 12.7,0.57 25.33,0.64 37.7,0.07 58.89,128.44 77.12,179.24 200.58,272.41 68.33,51.28 131.9,74.99 222.97,82.99 75.89,6.7 64.96,-19.47 125.95,32.65zm270.86 -952.43c50.5,17.55 -9.9,184.63 -46.7,174.83 -39.48,-5.19 -76.19,-1.68 -105.88,23.74 25.93,54.77 88,188.29 108.13,277.25 7.46,33.11 16.77,112.28 -20.49,134.28 -25.78,15.26 -70,11.17 -130,18.2l-8.66 62.37c4.21,8.66 15.45,12.17 14.88,18.31 -0.73,8.71 -20.67,43.95 -60.85,42.12 5.48,20.88 20.32,29.9 14.81,62.07 -3.4,19.83 -40.53,22.87 -65.32,36.05 -24.48,13.01 -13.01,20.86 -27.7,22.21 -2.98,-0.58 -6.32,-1.09 -9.9,-1.72 -348.92,-61.17 -361.11,-501.93 -99.63,-670.66l80.04 26.27c22.42,7.3 20.17,8.83 -4.59,17 -10.06,3.34 -20.86,5.38 -31.63,7.39 -27.86,5.51 -30.5,5.05 -1.87,15.02 33.25,11.62 72.8,19.23 96.95,27.92 12.47,4.5 11.96,8.63 21.43,-4.36 10.09,-13.72 10.3,-30.4 2.8,-49.28 17.42,0.48 33.01,-1.56 44.92,-8.68 25.27,-14.94 16.79,-24.11 -9.29,-22.66 -17.13,0.93 -34.76,6.49 -50.99,1.89l-111.16 -31.45c42.48,-37.53 128.12,-77.45 222.22,-71.35l41.31 -154.52 137.16 47.77zm-1955.05 1465.34c-66.52,42.93 -147.01,-483.67 0,-593.54 162.13,-112.52 316.56,-209.56 492.2,-319.83l113.96 -70.87c24.73,2.85 49.4,5.89 74.09,9.29 -21.04,23.43 -63.85,71.71 -71.48,80.16 -212.5,233.92 -458,650.02 -608.77,894.8zm533.79 678.09c-201.01,12.91 -551.75,-9.04 -627.5,-238.14 222.99,-500.94 498.8,-978.75 845.8,-1404.47 26.6,4.21 53.18,8.7 79.68,13.58 -224.83,530.69 -288.8,1055.64 -297.98,1629.02zm793.34 -1362.76c-75.53,-57.11 -146.02,-162.19 -176.34,-245.36 45.79,-16.07 83.62,-50.4 104.92,-93.64 -10.51,99.74 14.42,205.96 71.96,293.29 6.31,9.72 12.55,19.39 20.09,28.13 21.7,25.25 6.29,37.89 -20.63,17.58zm-1364.84 -32.12l-0.63 -246.22c-0.09,-20.92 13.04,-33.8 25.69,-35.37 175.22,-22.17 388.04,-9.07 566.78,8.6l13.07 1.27c-180.64,73.97 -448.11,232.57 -561.05,304.9 -14.69,7.33 -27.85,6.16 -37.88,-1.15 -9.5,-6.94 -5.98,-20.06 -5.98,-32.02zm26.89 -346c-47.87,1.26 -46.12,-173.18 -1.38,-178.5 349.1,-41.56 661.21,-46.09 1002.37,-22.9 -100.23,62.35 -117.89,201.19 -37.2,286.52 -310.54,-69.94 -645.31,-93.8 -963.79,-85.12zm-4.72 -234.71c-22.44,1.68 -69.17,-335.09 15.47,-311.51 265.34,74.06 541.51,156.63 808.01,186.13 -49.68,27.63 -93.98,59.07 -131.81,93.66 -92.39,-1.02 -183.94,0.26 -274.4,3.84 -139.11,5.53 -278.31,17.58 -417.27,27.89zm-5.86 -397.56c-22.62,-6.76 -36.95,-173.26 5.56,-165.82 278.79,49.61 550.13,92.12 823.73,169.9 34.81,96.47 82.89,148.3 134.65,207.4 -158.58,56.85 -728.83,-141.57 -963.94,-211.48zm0 -240.33c-27.05,-4.36 -27.13,-137.58 -2.01,-134.3 279.06,36.41 542.58,65.32 815.21,145.63 -11.89,56.31 -12.1,112.61 -2.13,166.27 -268.91,-79.19 -535.34,-133.72 -811.07,-177.59zm-3.25 -190.24c-22.41,-1.96 -27.01,-110.08 3.73,-109.34 357.69,8.77 661.06,30.82 1010.24,140.52 -42.16,36.08 -72.47,85.24 -84.55,141.07 -307.76,-105.17 -609.04,-144.62 -929.42,-172.25zm1299.28 1015.04c-2.19,-115.55 -90.04,-181.59 -198.27,-201.9 -113.21,-21.21 -244.6,-24.64 -327.53,-16.73 232.05,-189.44 709.13,-194.27 965.93,-91.31 -192.98,2.68 -377.25,124.93 -440.13,309.94zm145.99 -824.68c126.2,53.45 256.76,110.83 377.01,175.46 -0.48,27.2 -4.15,55.85 -6.25,83.32 -9.11,66.52 -30.28,133.87 -47.78,198.87 -185.98,-80.91 -504.8,-92.81 -704.14,-37.5 -138.45,-73.27 -216.5,-230.14 -186.47,-388.13 3.5,1.06 31.07,9.17 46.18,13.7 5.15,138.09 120.46,248.51 261.89,248.51 144.78,0 262.13,-115.62 262.13,-258.26 0,-12.23 -0.92,-24.23 -2.58,-35.97zm-332.27 765.52c35.37,0 64.07,28.76 64.07,64.12 0,35.3 -28.7,64.03 -64.07,64.03 -35.38,0 -64.11,-28.73 -64.11,-64.03 0,-35.36 28.69,-64.12 64.11,-64.12zm0 -62.22c69.74,0 126.26,56.54 126.26,126.34 0,69.71 -56.52,126.14 -126.26,126.2 -69.76,-0.06 -126.24,-56.49 -126.24,-126.2 0,-69.8 56.48,-126.34 126.24,-126.34zm155.07 -752.33c27.92,7.39 44.5,36.08 37.04,64 -7.51,27.88 -36.14,44.53 -64.09,37.07 -27.97,-7.45 -44.49,-36.17 -37.05,-64.05 7.49,-27.95 36.15,-44.47 64.1,-37.02zm-37.55 -73.22c93.04,24.92 148.33,120.49 123.51,213.57 -24.85,93.1 -120.45,148.39 -213.5,123.48 -92.99,-24.79 -148.3,-120.45 -123.48,-213.43 24.9,-93.05 120.42,-148.44 213.47,-123.62zm-145.31 930.65l55.55 0c5.8,0 10.52,4.75 10.52,10.54l0 21.39c0,5.84 -4.73,10.52 -10.52,10.52l-55.55 0c-5.8,0 -10.51,-4.69 -10.51,-10.52l0 -21.39c0,-5.8 4.72,-10.54 10.51,-10.54zm-717.69 -1871.09c-85.12,20.52 -302.94,92.77 -380.58,130.15l0 461.35c0,132.04 -12.92,102.09 125.65,106.63 747.17,24.45 1146.98,125.08 1707.37,471.59 -11.2,-138.37 -55.97,-273.14 -122.61,-394.11 -374.99,-273.76 -728.06,-408.62 -1190.18,-440.16 1309.85,-312.82 2485.73,943.27 2049.29,2241.14 -105.61,-28.11 -321.82,-112.43 -520.9,55.67 96.78,268.94 19.47,689.53 -340.5,664.99 12.8,124.03 -54.17,291.97 -236.03,426.79 -253.61,155.42 -646.24,207.92 -841.3,91.22 -242.35,39.3 -419.25,-32.3 -629.23,-135.35l0 221.83c113.27,74.53 244.33,115.3 379.02,147.19l95.57 428.17c22.78,46.01 63.49,70.73 124.9,71.03l646.46 0c54.92,-0.36 92.65,-26.54 118.02,-71.03l92.35 -440.43c85.43,-22.75 170.08,-50.71 251.84,-84.4l334.12 294.81c42.95,19.8 87.59,21.71 136.23,-15.2l490.99 -363.41c39.09,-32.02 57.81,-73.57 51.74,-126.34l-183.16 -403.9c55.62,-68.54 106.97,-140.64 153.62,-215.48l445.69 42.07c46.73,-0.63 79.08,-30.44 99.76,-92.27l183.96 -583.12c15.98,-52.99 9.65,-97.97 -30.25,-130.81l-388.16 -220.44c4.99,-88.31 4.21,-177.09 -2.1,-265.13l385 -227.92c42.1,-22.45 47.81,-70.3 24.67,-136.68l-192.86 -578.25c-11.83,-56.24 -45.91,-83.74 -98.91,-86.92l-445.39 50.26c-47.92,-74.54 -100.44,-145.66 -157.67,-213.34l177.02 -408.95c13.01,-49.4 1.47,-90.67 -55.64,-124.09l-496.35 -353.95c-47.77,-33.05 -93.67,-42.89 -136.34,-12.77l-329.17 300.12c-82.69,-32.02 -166.79,-58.65 -252.89,-79.8l-97.41 -436.16c-15.67,-50.75 -54.31,-72.5 -121.44,-68.69l-608.62 0c-71.65,2.34 -103.95,31.24 -118.62,69.71l-96.95 434.39z"/>
   <path class="fil0" d="M9671.24 2062.31c0,92.93 44.95,184.3 121.92,184.3 77.64,0 122.05,-90.55 122.05,-184.3 0,-93.67 -44.23,-185.26 -122.05,-185.26 -77.39,0 -121.92,91.99 -121.92,185.26zm121.92 -320.44c96.15,0 183.44,77.82 218.07,194.63 11.6,38.8 17.43,80.86 17.43,125.81 0,173.84 -98.16,320.55 -235.5,320.55 -136.01,0 -235.03,-148.07 -235.34,-319.53 -0.32,-173.24 97.86,-321.46 235.34,-321.46zm-1745.48 320.44c0,92.93 44.96,184.3 122.08,184.3 77.4,0 121.9,-90.7 121.9,-184.3 0,-93.67 -44.23,-185.26 -121.9,-185.26 -77.57,0 -122.08,91.99 -122.08,185.26zm-113.41 0c0,-44.56 5.92,-86.2 17.72,-125.08 35.28,-117.21 120.67,-195.36 217.77,-195.36 138.45,0 235.31,146.87 235.31,320.44 0,175.46 -99.45,320.55 -235.31,320.55 -136.59,0 -235.49,-148.82 -235.49,-320.55zm-699.3 0c0,92.93 45.07,184.3 121.98,184.3 77.51,0 121.96,-90.7 121.96,-184.3 0,-93.67 -44.23,-185.26 -121.96,-185.26 -77.36,0 -121.98,91.99 -121.98,185.26zm-113.51 0c0,-175.19 100.02,-320.44 235.49,-320.44 137.34,0 235.41,145.25 235.41,320.44 0,174.02 -98.07,320.55 -235.41,320.55 -135.47,0 -235.49,-147.58 -235.49,-320.55zm-1255.04 -250.7l0 551.45 286.93 0 0 -126.52 -180.06 0 0 -118.95 103.72 0 0 -123.34 -103.72 0 0 -108.73 177.5 0 0 -124.15 -284.65 0 0.28 50.22zm798.08 0l0 551.45 101.74 0 0 -328.15 269.5 328.15 28.45 0 0 -601.68 -101.67 0 0 331.69 -271.48 -331.69 -26.78 -0.28 0.24 50.5zm985.22 0l0 551.45 290.2 0 0 -129.02 -179.94 0 0 -472.66 -110.44 0 0.18 50.22zm1316.85 551.45l110.32 0 0 -601.68 -110.32 0.08 0 601.6zm-92.63 -283.98l0 -49.87 -196.28 0 0 122.28 87.4 0 0 87.43c-19.37,7.7 -39.35,12.86 -59.67,12.86 -86.65,0 -140.52,-84.04 -140.52,-193.88 0,-53.96 13.46,-99.15 40.77,-135.23 44.2,-58.8 113.55,-69.05 169.64,-34.34 21.27,13.04 42.45,33.73 64.03,61.74l11.76 -150.58c-22.74,-19.47 -46.38,-34.04 -71.05,-43.84 -88.42,-35.12 -189.91,-9.01 -256.16,76.83 -47.11,60.81 -70.6,137.72 -70.6,230.65 0,184.78 102.67,319.74 244.57,319.74 61.14,0 121.96,-25.63 176.12,-61.11l0 -242.67zm-2283.67 -112.94l0 -168.02c-97.38,-87.05 -230.33,-74.6 -312.98,35.54 -46.4,61.99 -68.69,142.84 -68.69,228.65 0,100.68 30.97,192.19 92.14,254.81 84.86,86.98 200.61,86.02 289.52,7.75l0 -152.62c-63.55,70.06 -167.15,114.08 -233.06,22.24 -24.64,-34.08 -36.95,-78.66 -36.95,-133.73 0,-54.84 12.46,-99.96 37.25,-135.14 54.94,-77.94 137.99,-62.59 197.18,-1.81l35.58 42.34zm1586.88 -269.69l38.62 -50.34 -27.08 -35.46 -65.11 85 53.56 0.81zm1347.05 269.69l0 -168.02c-97.23,-87.05 -230.14,-74.42 -313.01,35.54 -46.33,61.92 -68.51,142.84 -68.51,228.65 0,100.68 30.77,192.19 92.09,254.81 85.06,87.43 200.94,85.69 289.42,7.75l0 -152.62c-63.67,70.06 -167.09,114.08 -233.09,22.24 -24.73,-34.08 -36.96,-78.66 -36.96,-133.73 0,-54.84 12.47,-99.96 37.26,-135.14 55.01,-77.94 138,-62.71 197.37,-1.81l35.42 42.34zm-3983.12 396.92l0 -475.76 -146.8 0.27 0 -126.19 402.99 0 0 125.92 -145.96 0 0 475.76 -110.23 0z"/>
   <path class="fil0" d="M10950.49 2996.99c0,-171.43 102.88,-318.27 247.04,-318.27 145.33,0 247.1,145.97 247.1,318.27 0,174.59 -104.47,318.33 -247.1,318.33 -143.35,0 -247.04,-147.55 -247.04,-318.33zm119.1 0c0,92.36 47.15,183.29 127.94,183.29 81.43,0 127.94,-90.14 127.94,-183.29 0,-92.98 -46.33,-183.96 -127.94,-183.96 -81.21,0 -127.94,91.33 -127.94,183.96zm-2152.77 -298.86l-99.14 597.78 103.11 0 42.58 -277.01 127.97 277.01 29.57 0 119.88 -273.01 41.13 273.01 109.9 0 -98.13 -597.72 -20.43 0 -163.84 369.74 -173.75 -369.74 -18.84 -0.06zm525.32 49.74l0 548.05 301.17 0 0 -125.77 -188.92 0 0 -118.22 113.74 0 0 -122.41 -113.74 0 0 -108.08 186.16 0 0 -123.25 -298.35 0 -0.06 49.68zm516.72 238.88l-174.11 309.17 126.61 0 111.59 -202.83 117.71 202.83 142.38 0 -190.99 -321.6 156.03 -276.12 -125.83 0 -93.92 170.63 -99.93 -170.63 -111.95 0 142.42 288.56zm383.17 -238.88l0 548.05 115.58 0 0 -597.72 -115.56 0 -0.02 49.68zm-729.95 -89.21l23.32 -28.76 -28.43 -35.15 -51.79 63.91 56.9 0zm1261.72 200.61c-62.25,-60.36 -149.26,-75.63 -206.96,1.87 -52.09,69.64 -53.23,198.02 -0.35,267.28 68.95,90.76 177.62,47.6 244.57,-22.14l0 151.57c-92.87,77.33 -214.4,79.01 -303.73,-7.64 -118.95,-115.13 -129.66,-347.32 -24.86,-480.42 86.93,-109.25 226.46,-121.62 328.59,-35.27l0 166.82 -37.26 -42.07z"/>
   <path class="fil0" d="M7860.83 3156.99l0 -339.96 25.3 0c50.18,0 89.7,14.99 117.96,45.37 28.46,30.41 42.69,71.93 42.69,125.15 0,52.9 -14.23,94.45 -42.69,124.47 -28.27,29.98 -67.78,44.98 -117.96,44.98l-25.3 0zm-2169.68 -169.45c0,91.78 47.12,182.13 127.34,182.13 81.03,0 127.27,-89.81 127.27,-182.13 0,-92.57 -46.03,-183.29 -127.27,-183.29 -80.79,0 -127.34,90.83 -127.34,183.29zm-118.31 0c0,-173.22 104.25,-316.83 245.65,-316.83 144.73,0 245.77,145.11 245.77,316.83 0,171.82 -102.34,316.54 -245.77,316.54 -140.37,0 -245.65,-144.72 -245.65,-316.54zm-1594.57 297.17l0.46 -594.54 27.22 0 283.39 327.78 0 -327.78 106.31 0 0 594.54 -31.4 0 -279.75 -324.31 0 324.31 -106.22 0zm632.4 -188.84l64.11 -186.22 62.59 186.22 -126.7 0zm-180.42 188.84l115.81 0 31.25 -86.57 195.57 0 30.48 86.57 120.51 0 -233.33 -594.54 -21.95 0 -238.35 594.54zm828.36 -434.24c-61.92,-60.16 -148.42,-75.24 -205.99,1.83 -25.87,34.67 -38.87,79.29 -38.87,133.67 0,54.35 12.82,98.37 38.6,132.34 68.84,90.52 176.9,47.09 243.25,-22.32l0 150.85c-92.74,77.33 -213.62,78.3 -302.2,-7.61 -63.88,-61.97 -96.05,-152.31 -96.05,-251.7 0,-85 23.26,-164.9 71.44,-226.04 86.87,-109.31 225.89,-120.63 326.81,-35.24l0 166 -36.99 -41.79zm132.59 -110.99l0 545.24 115.1 0 0 -594.54 -115.04 0 -0.06 49.31zm721.66 0l0 545.24 106.03 0 0 -324.31 279.84 322.36 31.34 0 0 -592.59 -106.13 0 0 327.78 -283.54 -327.78 -27.53 0 -0.02 49.31zm632.24 356.4l64.17 -186.22 62.56 186.22 -126.73 0zm-180.34 188.84l115.91 0 31.1 -86.57 195.53 0 30.7 86.57 120.36 0 -233.17 -594.54 -21.97 0 -238.47 594.54zm529.58 0l303.03 0 0 -127.73 -187.81 0 0 -466.82 -115.1 0 -0.12 594.54zm1133.27 -545.24l0 545.24 299.52 0 0 -125.17 -187.94 0 0 -117.45 122.2 0 0 -121.83 -122.2 0 0 -107.6 185.29 0 0 -122.5c-111.4,0 -185.49,0.49 -296.78,0.49l-0.09 48.82zm-480.54 0l0 545.24 128.14 0c60.4,0 115.52,-6.92 168.92,-44.68 77.76,-55.26 119.04,-141.52 119.04,-252.49 0,-92.25 -25.63,-164.9 -76.4,-217.86 -51.05,-52.94 -121.72,-79.51 -211.55,-79.51l-128.02 0 -0.12 49.31z"/>
  </g>
 </g>
</svg>
