<?xml version="1.0" encoding="iso-8859-1"?>
<!-- Generator: Adobe Illustrator 27.0.0, SVG Export Plug-In . SVG Version: 6.00 Build 0)  -->
<svg version="1.1" id="Layer_1" xmlns="http://www.w3.org/2000/svg" xmlns:xlink="http://www.w3.org/1999/xlink" x="0px" y="0px"
	 viewBox="0 0 500 500" style="enable-background:new 0 0 500 500;" xml:space="preserve">
<g id="watermark_1_">
	<g>
		<g id="watermark" style="opacity:0.61;">
			<g>
				<g>
					<g>
						<g>
							<polygon style="fill:#FFFFFF;" points="213.765,461.172 208.204,474.017 205.268,474.017 199.726,461.172 202.938,461.172 
								206.846,470.347 210.81,461.172 							"/>
						</g>
						<g>
							<path style="fill:#FFFFFF;" d="M223.507,469.741h-7.469c0.275,1.23,1.321,1.982,2.826,1.982c1.046,0,1.798-0.312,2.477-0.954
								l1.523,1.651c-0.917,1.046-2.294,1.597-4.074,1.597c-3.413,0-5.634-2.147-5.634-5.083c0-2.954,2.257-5.083,5.267-5.083
								c2.899,0,5.138,1.945,5.138,5.12C223.562,469.191,223.526,469.503,223.507,469.741 M216.002,468.071h4.863
								c-0.202-1.248-1.138-2.055-2.422-2.055C217.139,466.016,216.204,466.805,216.002,468.071"/>
						</g>
						<g>
							<path style="fill:#FFFFFF;" d="M224.735,468.934c0-2.973,2.294-5.083,5.505-5.083c2.074,0,3.707,0.899,4.423,2.514
								l-2.22,1.193c-0.532-0.936-1.321-1.358-2.221-1.358c-1.45,0-2.587,1.009-2.587,2.734c0,1.725,1.138,2.734,2.587,2.734
								c0.899,0,1.688-0.404,2.221-1.358l2.22,1.211c-0.716,1.578-2.349,2.495-4.423,2.495
								C227.029,474.017,224.735,471.907,224.735,468.934"/>
						</g>
						<g>
							<path style="fill:#FFFFFF;" d="M242.828,473.393c-0.587,0.422-1.45,0.624-2.331,0.624c-2.33,0-3.688-1.193-3.688-3.542
								v-4.055h-1.523v-2.202h1.523v-2.404h2.863v2.404h2.459v2.202h-2.459v4.019c0,0.844,0.458,1.303,1.229,1.303
								c0.422,0,0.844-0.128,1.156-0.367L242.828,473.393z"/>
						</g>
					</g>
					<g>
						<path style="fill:#FFFFFF;" d="M262.474,463.997v2.643c-0.238-0.018-0.422-0.037-0.642-0.037
							c-1.578,0-2.624,0.862-2.624,2.753v4.661h-2.863v-9.873h2.734v1.303C259.776,464.493,260.951,463.997,262.474,463.997"/>
					</g>
					<g>
						<path style="fill:#FFFFFF;" d="M263.299,472.53l1.009-2.239c1.083,0.789,2.697,1.339,4.239,1.339
							c1.762,0,2.477-0.587,2.477-1.376c0-2.404-7.469-0.752-7.469-5.524c0-2.184,1.762-4,5.413-4c1.615,0,3.267,0.385,4.459,1.138
							l-0.918,2.257c-1.193-0.679-2.422-1.009-3.56-1.009c-1.761,0-2.44,0.66-2.44,1.468c0,2.367,7.468,0.734,7.468,5.45
							c0,2.147-1.78,3.982-5.45,3.982C266.492,474.017,264.437,473.411,263.299,472.53"/>
					</g>
					<g>
						<path style="fill:#FFFFFF;" d="M285.428,469.741h-7.469c0.275,1.23,1.321,1.982,2.826,1.982c1.046,0,1.798-0.312,2.477-0.954
							l1.523,1.651c-0.918,1.046-2.294,1.597-4.074,1.597c-3.413,0-5.634-2.147-5.634-5.083c0-2.954,2.257-5.083,5.267-5.083
							c2.9,0,5.138,1.945,5.138,5.12C285.484,469.191,285.447,469.503,285.428,469.741 M277.923,468.071h4.863
							c-0.202-1.248-1.138-2.055-2.422-2.055C279.061,466.016,278.125,466.805,277.923,468.071"/>
					</g>
					<g>
						<path style="fill:#FFFFFF;" d="M297.007,469.741h-7.469c0.275,1.23,1.321,1.982,2.826,1.982c1.046,0,1.798-0.312,2.477-0.954
							l1.523,1.651c-0.918,1.046-2.294,1.597-4.074,1.597c-3.413,0-5.634-2.147-5.634-5.083c0-2.954,2.257-5.083,5.267-5.083
							c2.899,0,5.138,1.945,5.138,5.12C297.062,469.191,297.025,469.503,297.007,469.741 M289.501,468.071h4.863
							c-0.202-1.248-1.138-2.055-2.422-2.055C290.639,466.016,289.703,466.805,289.501,468.071"/>
					</g>
					<g>
						<polygon style="fill:#FFFFFF;" points="303.208,470.145 301.831,471.503 301.831,474.017 298.969,474.017 298.969,460.401 
							301.831,460.401 301.831,468.108 306.016,464.144 309.429,464.144 305.318,468.328 309.796,474.017 306.327,474.017 						"/>
					</g>
					<g>
						<path style="fill:#FFFFFF;" d="M256.601,475.359L256.601,475.359l-2.86-2.86c-0.435,0.508-0.953,0.943-1.534,1.284
							c-0.092,0.069-0.186,0.136-0.283,0.199l3.027,3.027c0.456,0.456,1.195,0.456,1.65,0
							C257.057,476.554,257.057,475.815,256.601,475.359"/>
					</g>
					<g>
						<path style="fill:#FFFFFF;" d="M249.984,463.244c0.221-0.173,0.495-0.281,0.797-0.281c0.042,0,0.083,0.002,0.124,0.006
							c-0.214-0.156-0.478-0.249-0.764-0.249c-0.395,0-0.744,0.18-0.981,0.458c-0.051,0-0.1,0.006-0.151,0.008
							c0.039-0.077,0.064-0.162,0.064-0.255c0-0.234-0.143-0.434-0.346-0.519c0.087,0.126,0.138,0.279,0.138,0.445
							c0,0.122-0.031,0.237-0.081,0.341c-2.811,0.201-5.03,2.539-5.03,5.4c0,2.993,2.426,5.42,5.42,5.42
							c2.993,0,5.42-2.426,5.42-5.42C254.595,465.879,252.593,463.635,249.984,463.244 M247.983,464.656
							c0.435,0,0.844,0.112,1.199,0.309c0.374-0.245,0.82-0.387,1.299-0.387c0.711,0,1.348,0.312,1.784,0.806
							c-0.435-0.379-1.004-0.61-1.627-0.61c-0.449,0-0.87,0.12-1.234,0.329c-0.079,0.046-0.156,0.096-0.229,0.15
							c-0.065-0.048-0.133-0.093-0.204-0.134c-0.369-0.219-0.8-0.344-1.26-0.344c-0.3,0-0.588,0.054-0.854,0.152
							C247.196,464.754,247.578,464.656,247.983,464.656 M251.772,469.098c0.115,0.305,0.181,0.634,0.181,0.979
							c0,1.534-1.244,2.777-2.778,2.777c-1.534,0-2.777-1.243-2.777-2.777c0-0.345,0.066-0.674,0.181-0.979
							c-0.62-0.382-1.035-1.064-1.035-1.846c0-1.197,0.971-2.168,2.168-2.168c0.565,0,1.078,0.218,1.463,0.572
							c0.386-0.354,0.899-0.572,1.464-0.572c1.197,0,2.168,0.971,2.168,2.168C252.807,468.034,252.392,468.716,251.772,469.098"/>
					</g>
					<g>
						<path style="fill:#FFFFFF;" d="M251.666,467.061c0,0.497-0.404,0.901-0.901,0.901c-0.497,0-0.901-0.404-0.901-0.901
							s0.404-0.901,0.901-0.901c0.101,0,0.197,0.017,0.287,0.047c-0.03,0.062-0.045,0.132-0.045,0.204
							c0,0.273,0.221,0.494,0.494,0.494c0.05,0,0.099-0.008,0.146-0.022C251.66,466.941,251.666,467,251.666,467.061"/>
					</g>
					<g>
						<path style="fill:#FFFFFF;" d="M248.255,467.061c0,0.376-0.305,0.681-0.681,0.681c-0.376,0-0.681-0.305-0.681-0.681
							s0.305-0.681,0.681-0.681c0.076,0,0.149,0.013,0.217,0.035c-0.023,0.047-0.034,0.1-0.034,0.155
							c0,0.206,0.167,0.374,0.374,0.374c0.038,0,0.075-0.006,0.11-0.017C248.25,466.97,248.255,467.015,248.255,467.061"/>
					</g>
					<g>
						<g>
							<g>
								<rect x="242.908" y="467.83" style="fill:#FFFFFF;" width="0.616" height="0.616"/>
							</g>
							<g>
								<rect x="254.827" y="467.83" style="fill:#FFFFFF;" width="0.616" height="0.616"/>
							</g>
							<g>
								<path style="fill:#FFFFFF;" d="M255.205,468.082h-0.14c0-3.248-2.642-5.89-5.89-5.89c-3.248,0-5.89,2.642-5.89,5.89h-0.14
									c0-1.611,0.627-3.125,1.766-4.264c1.139-1.139,2.653-1.766,4.264-1.766c1.611,0,3.125,0.627,4.264,1.766
									C254.578,464.957,255.205,466.471,255.205,468.082"/>
							</g>
						</g>
						<g>
							<rect x="248.868" y="461.814" style="fill:#FFFFFF;" width="0.616" height="0.616"/>
						</g>
						<g>
							<rect x="244.95" y="462.052" style="fill:#FFFFFF;" width="8.45" height="0.14"/>
						</g>
						<g>
							<path style="fill:#FFFFFF;" d="M245.174,462.15c0,0.108-0.088,0.196-0.196,0.196c-0.108,0-0.196-0.088-0.196-0.196
								c0-0.108,0.088-0.196,0.196-0.196C245.086,461.954,245.174,462.042,245.174,462.15"/>
						</g>
						<g>
							<path style="fill:#FFFFFF;" d="M253.596,462.15c0,0.108-0.088,0.196-0.196,0.196c-0.108,0-0.196-0.088-0.196-0.196
								c0-0.108,0.088-0.196,0.196-0.196C253.509,461.954,253.596,462.042,253.596,462.15"/>
						</g>
					</g>
				</g>
				<g>
					<path style="fill:#FFFFFF;" d="M314.356,473.409c0,1.559-2.364,1.559-2.364,0C311.993,471.851,314.356,471.851,314.356,473.409
						z"/>
				</g>
				<g>
					<g>
						<g>
							<path style="fill:#FFFFFF;" d="M161.739,466.549l1.772,6.088l1.855-6.088h2.215l-2.823,8.14h-2.33l-0.837-2.396l-0.722-2.708
								l-0.722,2.708l-0.837,2.396h-2.33l-2.839-8.14h2.231l1.855,6.088l1.756-6.088H161.739z"/>
						</g>
						<g>
							<path style="fill:#FFFFFF;" d="M176.713,466.549l1.772,6.088l1.855-6.088h2.215l-2.823,8.14h-2.33l-0.837-2.396l-0.722-2.708
								l-0.722,2.708l-0.837,2.396h-2.33l-2.839-8.14h2.231l1.855,6.088l1.756-6.088H176.713z"/>
						</g>
						<g>
							<path style="fill:#FFFFFF;" d="M191.687,466.549l1.772,6.088l1.855-6.088h2.215l-2.823,8.14h-2.33l-0.837-2.396l-0.722-2.708
								l-0.722,2.708l-0.837,2.396h-2.33l-2.839-8.14h2.231l1.855,6.088l1.756-6.088H191.687z"/>
						</g>
					</g>
					<g>
						<path style="fill:#FFFFFF;" d="M200.908,473.52c0,1.559-2.364,1.559-2.364,0C198.545,471.962,200.908,471.962,200.908,473.52z
							"/>
					</g>
					<g>
						<path style="fill:#FFFFFF;" d="M322.71,473.409c-0.935,0.919-1.919,1.28-3.117,1.28c-2.346,0-4.3-1.411-4.3-4.282
							s1.953-4.284,4.3-4.284c1.149,0,2.035,0.329,2.921,1.199l-1.264,1.329c-0.476-0.428-1.066-0.64-1.623-0.64
							c-1.346,0-2.33,0.985-2.33,2.396c0,1.542,1.05,2.362,2.297,2.362c0.64,0,1.28-0.18,1.772-0.672L322.71,473.409z"/>
					</g>
					<g>
						<path style="fill:#FFFFFF;" d="M331.805,470.472c0,2.33-1.591,4.217-4.217,4.217c-2.626,0-4.201-1.887-4.201-4.217
							c0-2.314,1.609-4.217,4.185-4.217C330.149,466.255,331.805,468.158,331.805,470.472z M325.389,470.472
							c0,1.231,0.739,2.38,2.199,2.38c1.46,0,2.199-1.149,2.199-2.38c0-1.215-0.854-2.396-2.199-2.396
							C326.144,468.077,325.389,469.258,325.389,470.472z"/>
					</g>
					<g>
						<path style="fill:#FFFFFF;" d="M338.572,474.689v-4.332c0-1.068-0.559-2.035-1.658-2.035c-1.082,0-1.722,0.967-1.722,2.035
							v4.332h-2.003v-8.107h1.855l0.148,0.985c0.426-0.82,1.362-1.116,2.133-1.116c0.969,0,1.937,0.394,2.396,1.51
							c0.723-1.149,1.658-1.478,2.708-1.478c2.297,0,3.43,1.412,3.43,3.84v4.365h-2.003v-4.365c0-1.066-0.442-1.97-1.526-1.97
							c-1.082,0-1.756,0.935-1.756,2.003v4.332H338.572z"/>
					</g>
				</g>
			</g>
		</g>
		<g style="opacity:0.61;">
			<g>
				<g>
					<path style="fill:#FFFFFF;" d="M345.988,431.299c-0.006-1.224-0.959-2.121-2.189-2.14c-0.924-0.014-0.832,0.12-0.834-0.867
						c-0.003-1.097-0.007-2.194,0.003-3.292c0.003-0.379-0.112-0.691-0.362-0.976c-2.342-2.668-4.678-5.342-7.019-8.011
						c-0.12-0.137-0.275-0.244-0.414-0.366c-6.214,0-12.427,0-18.641,0c-0.794,0.293-1.14,0.868-1.138,1.709
						c0.01,3.748,0.004,7.496,0.004,11.243c0,0.556-0.003,0.589-0.55,0.551c-1.497-0.102-2.516,0.986-2.497,2.492
						c0.044,3.476,0.013,6.953,0.014,10.429c0.001,1.58,0.867,2.443,2.45,2.449c0.582,0.002,0.582,0.002,0.582,0.6
						c0,2.219-0.001,4.438,0.001,6.657c0.001,1.192,0.58,1.771,1.768,1.771c8.013,0.001,16.027,0.001,24.04,0
						c1.168,0,1.755-0.583,1.757-1.745c0.002-2.256,0-4.512,0.001-6.768c0-0.512,0.002-0.511,0.52-0.515
						c0.271-0.002,0.541,0.008,0.809-0.058c0.996-0.246,1.69-1.044,1.694-2.069C346.003,438.696,346.005,434.997,345.988,431.299z
						 M317.537,417.162c5.337,0,10.674,0,16.01,0c0.548,0,0.554,0.007,0.554,0.561c0.001,2.243-0.001,4.486,0.001,6.73
						c0.001,0.811,0.249,1.059,1.06,1.059c1.91,0.001,3.821,0,5.731,0.001c0.458,0,0.479,0.021,0.481,0.483
						c0.003,0.887,0.002,1.775,0,2.662c-0.001,0.477-0.024,0.498-0.504,0.499c-3.895,0.001-7.79,0-11.684,0
						c-3.882,0-7.765,0-11.647,0c-0.55,0-0.552-0.001-0.552-0.561c-0.001-3.624-0.001-7.247,0-10.871
						C316.987,417.166,316.991,417.162,317.537,417.162z M340.822,451.579c-3.883,0.001-7.766,0-11.65,0c-3.871,0-7.742,0-11.613,0
						c-0.572,0-0.574-0.002-0.574-0.579c-0.001-1.997-0.001-3.994,0.001-5.991c0-0.464,0.023-0.486,0.478-0.487
						c7.803-0.001,15.607-0.001,23.41,0c0.478,0,0.499,0.02,0.499,0.503c0.002,1.997,0.001,3.994,0,5.991
						C341.375,451.574,341.37,451.579,340.822,451.579z"/>
				</g>
				<g>
					<g>
						<rect x="327.418" y="417.053" style="fill:#FFFFFF;" width="1.757" height="1.054"/>
					</g>
					<g>
						<rect x="325.662" y="418.107" style="fill:#FFFFFF;" width="1.757" height="1.054"/>
					</g>
					<g>
						<rect x="327.418" y="419.161" style="fill:#FFFFFF;" width="1.757" height="1.054"/>
					</g>
					<g>
						<rect x="325.662" y="420.215" style="fill:#FFFFFF;" width="1.757" height="1.054"/>
					</g>
					<g>
						<rect x="327.418" y="421.269" style="fill:#FFFFFF;" width="1.757" height="1.054"/>
					</g>
					<g>
						<rect x="325.662" y="422.323" style="fill:#FFFFFF;" width="1.757" height="1.054"/>
					</g>
					<g>
						<rect x="327.418" y="423.378" style="fill:#FFFFFF;" width="1.757" height="1.054"/>
					</g>
					<g>
						<rect x="325.662" y="424.432" style="fill:#FFFFFF;" width="1.757" height="1.054"/>
					</g>
					<g>
						<rect x="327.418" y="425.486" style="fill:#FFFFFF;" width="1.757" height="1.054"/>
					</g>
					<g>
						<rect x="325.662" y="426.54" style="fill:#FFFFFF;" width="1.757" height="1.054"/>
					</g>
					<g>
						<rect x="327.418" y="427.594" style="fill:#FFFFFF;" width="1.757" height="1.054"/>
					</g>
					<g>
						<rect x="325.662" y="428.648" style="fill:#FFFFFF;" width="1.757" height="1.054"/>
					</g>
				</g>
			</g>
			<g>
				<path style="fill:#FFFFFF;" d="M187.637,431.299c-0.006-1.224-0.959-2.121-2.189-2.14c-0.924-0.014-0.832,0.12-0.834-0.867
					c-0.003-1.097-0.007-2.194,0.003-3.292c0.003-0.379-0.112-0.691-0.362-0.976c-2.342-2.668-4.678-5.342-7.019-8.011
					c-0.12-0.137-0.275-0.244-0.414-0.366c-6.214,0-12.427,0-18.641,0c-0.794,0.293-1.14,0.868-1.138,1.709
					c0.01,3.748,0.004,7.496,0.004,11.243c0,0.556-0.003,0.589-0.55,0.551c-1.497-0.102-2.516,0.986-2.497,2.492
					c0.044,3.476,0.013,6.953,0.014,10.429c0.001,1.58,0.867,2.443,2.45,2.449c0.582,0.002,0.582,0.002,0.582,0.6
					c0,2.219-0.001,4.438,0.001,6.657c0.001,1.192,0.58,1.771,1.768,1.771c8.013,0.001,16.027,0.001,24.04,0
					c1.168,0,1.755-0.583,1.757-1.745c0.002-2.256,0-4.512,0.001-6.768c0-0.512,0.002-0.511,0.52-0.515
					c0.271-0.002,0.541,0.008,0.809-0.058c0.996-0.246,1.69-1.044,1.694-2.069C187.652,438.696,187.655,434.997,187.637,431.299z
					 M159.187,417.162c5.337,0,10.674,0,16.01,0c0.548,0,0.554,0.007,0.554,0.561c0.001,2.243-0.001,4.486,0.001,6.73
					c0.001,0.811,0.249,1.059,1.06,1.059c1.91,0.001,3.821,0,5.731,0.001c0.458,0,0.479,0.021,0.481,0.483
					c0.003,0.887,0.002,1.775,0,2.662c-0.001,0.477-0.024,0.498-0.504,0.499c-3.895,0.001-7.79,0-11.684,0
					c-3.882,0-7.765,0-11.647,0c-0.55,0-0.552-0.001-0.552-0.561c-0.001-3.624-0.001-7.247,0-10.871
					C158.636,417.166,158.64,417.162,159.187,417.162z M182.472,451.579c-3.883,0.001-7.766,0-11.65,0c-3.871,0-7.742,0-11.613,0
					c-0.572,0-0.574-0.002-0.574-0.579c-0.001-1.997-0.001-3.994,0.001-5.991c0-0.464,0.023-0.486,0.478-0.487
					c7.803-0.001,15.607-0.001,23.41,0c0.478,0,0.499,0.02,0.499,0.503c0.002,1.997,0.001,3.994,0,5.991
					C183.024,451.574,183.019,451.579,182.472,451.579z"/>
			</g>
			<g>
				<path style="fill:#FFFFFF;" d="M159.779,440.669v-7.897h2.779c0.375,0,0.726,0.061,1.053,0.182
					c0.327,0.121,0.612,0.292,0.855,0.513c0.242,0.221,0.434,0.483,0.573,0.789c0.14,0.305,0.21,0.642,0.21,1.009
					c0,0.375-0.07,0.715-0.21,1.02c-0.14,0.305-0.331,0.568-0.573,0.789c-0.243,0.221-0.528,0.392-0.855,0.513
					c-0.327,0.121-0.678,0.182-1.053,0.182h-1.29v2.901H159.779z M162.58,436.356c0.39,0,0.684-0.111,0.882-0.331
					c0.199-0.22,0.298-0.474,0.298-0.761c0-0.14-0.024-0.276-0.072-0.408c-0.048-0.132-0.121-0.248-0.221-0.347
					c-0.099-0.099-0.223-0.178-0.37-0.237c-0.147-0.059-0.32-0.089-0.518-0.089h-1.312v2.173H162.58z"/>
				<path style="fill:#FFFFFF;" d="M166.308,432.771h1.731l3.177,5.294h0.088l-0.088-1.522v-3.772h1.478v7.897h-1.566l-3.353-5.592
					h-0.088l0.088,1.522v4.07h-1.467V432.771z"/>
				<path style="fill:#FFFFFF;" d="M177.922,436.334h3.872c0.022,0.089,0.04,0.195,0.055,0.32c0.014,0.125,0.022,0.25,0.022,0.375
					c0,0.507-0.077,0.985-0.231,1.434c-0.154,0.449-0.397,0.849-0.728,1.202c-0.353,0.375-0.776,0.666-1.268,0.871
					c-0.493,0.206-1.055,0.309-1.688,0.309c-0.574,0-1.114-0.103-1.622-0.309c-0.507-0.206-0.948-0.492-1.323-0.86
					c-0.375-0.367-0.673-0.803-0.894-1.307c-0.221-0.504-0.331-1.053-0.331-1.649c0-0.595,0.11-1.145,0.331-1.649
					c0.221-0.504,0.518-0.939,0.894-1.307c0.375-0.367,0.816-0.654,1.323-0.86c0.507-0.206,1.048-0.309,1.622-0.309
					c0.64,0,1.211,0.11,1.715,0.331c0.504,0.221,0.935,0.526,1.296,0.915l-1.025,1.004c-0.258-0.272-0.544-0.48-0.861-0.623
					c-0.316-0.143-0.695-0.215-1.136-0.215c-0.361,0-0.703,0.065-1.026,0.193c-0.324,0.129-0.607,0.311-0.85,0.546
					c-0.242,0.235-0.436,0.52-0.579,0.855c-0.143,0.335-0.215,0.708-0.215,1.119c0,0.412,0.072,0.785,0.215,1.12
					c0.143,0.335,0.338,0.62,0.584,0.855c0.246,0.235,0.531,0.418,0.855,0.546c0.323,0.129,0.669,0.193,1.037,0.193
					c0.419,0,0.773-0.061,1.064-0.182c0.29-0.121,0.538-0.278,0.744-0.469c0.148-0.132,0.275-0.3,0.381-0.502
					c0.106-0.202,0.189-0.428,0.248-0.678h-2.482V436.334z"/>
			</g>
			<g>
				<path style="fill:#FFFFFF;" d="M224.019,431.299c-0.006-1.224-0.959-2.121-2.189-2.14c-0.924-0.014-0.832,0.12-0.834-0.867
					c-0.003-1.097-0.007-2.194,0.003-3.292c0.003-0.379-0.112-0.691-0.362-0.976c-2.342-2.668-4.678-5.342-7.019-8.011
					c-0.12-0.137-0.275-0.244-0.414-0.366c-6.214,0-12.427,0-18.641,0c-0.794,0.293-1.14,0.868-1.138,1.709
					c0.01,3.748,0.004,7.496,0.004,11.243c0,0.556-0.003,0.589-0.55,0.551c-1.497-0.102-2.516,0.986-2.497,2.492
					c0.044,3.476,0.013,6.953,0.014,10.429c0.001,1.58,0.867,2.443,2.45,2.449c0.582,0.002,0.582,0.002,0.582,0.6
					c0,2.219-0.001,4.438,0.001,6.657c0.001,1.192,0.58,1.771,1.768,1.771c8.013,0.001,16.027,0.001,24.04,0
					c1.168,0,1.755-0.583,1.757-1.745c0.002-2.256,0-4.512,0.001-6.768c0-0.512,0.002-0.511,0.52-0.515
					c0.271-0.002,0.541,0.008,0.809-0.058c0.997-0.246,1.69-1.044,1.694-2.069C224.034,438.696,224.036,434.997,224.019,431.299z
					 M195.568,417.162c5.337,0,10.674,0,16.01,0c0.548,0,0.554,0.007,0.554,0.561c0.001,2.243-0.001,4.486,0.001,6.73
					c0.001,0.811,0.249,1.059,1.06,1.059c1.91,0.001,3.821,0,5.731,0.001c0.458,0,0.479,0.021,0.481,0.483
					c0.003,0.887,0.002,1.775,0,2.662c-0.001,0.477-0.024,0.498-0.504,0.499c-3.895,0.001-7.79,0-11.684,0
					c-3.882,0-7.765,0-11.647,0c-0.55,0-0.552-0.001-0.552-0.561c-0.001-3.624-0.001-7.247,0-10.871
					C195.018,417.166,195.022,417.162,195.568,417.162z M218.854,451.579c-3.883,0.001-7.766,0-11.65,0c-3.871,0-7.742,0-11.613,0
					c-0.572,0-0.574-0.002-0.574-0.579c-0.001-1.997-0.001-3.994,0.001-5.991c0-0.464,0.023-0.486,0.478-0.487
					c7.803-0.001,15.607-0.001,23.41,0c0.478,0,0.499,0.02,0.499,0.503c0.002,1.997,0.001,3.994,0,5.991
					C219.406,451.574,219.401,451.579,218.854,451.579z"/>
			</g>
			<g>
				<path style="fill:#FFFFFF;" d="M205.111,432.771h1.699l2.967,7.897h-1.644l-0.651-1.886h-3.044l-0.651,1.886h-1.643
					L205.111,432.771z M206.997,437.415l-0.706-1.974l-0.287-0.96h-0.088l-0.287,0.96l-0.706,1.974H206.997z"/>
				<path style="fill:#FFFFFF;" d="M211.331,434.536c-0.125,0-0.245-0.024-0.359-0.072c-0.114-0.048-0.213-0.114-0.298-0.199
					c-0.084-0.084-0.151-0.182-0.198-0.292c-0.048-0.11-0.072-0.232-0.072-0.364s0.024-0.254,0.072-0.364
					c0.048-0.11,0.114-0.208,0.198-0.292c0.084-0.084,0.184-0.151,0.298-0.198c0.114-0.048,0.233-0.072,0.359-0.072
					c0.257,0,0.478,0.09,0.662,0.27c0.184,0.181,0.276,0.399,0.276,0.656s-0.092,0.476-0.276,0.656
					C211.809,434.446,211.589,434.536,211.331,434.536z M210.615,440.669v-5.404h1.445v5.404H210.615z"/>
			</g>
			<g>
				<path style="fill:#FFFFFF;" d="M261.044,431.299c-0.006-1.224-0.959-2.121-2.189-2.14c-0.924-0.014-0.832,0.12-0.834-0.867
					c-0.003-1.097-0.007-2.194,0.003-3.292c0.003-0.379-0.112-0.691-0.362-0.976c-2.342-2.668-4.678-5.342-7.019-8.011
					c-0.12-0.137-0.275-0.244-0.414-0.366c-6.214,0-12.427,0-18.641,0c-0.794,0.293-1.14,0.868-1.138,1.709
					c0.01,3.748,0.004,7.496,0.004,11.243c0,0.556-0.003,0.589-0.55,0.551c-1.497-0.102-2.516,0.986-2.497,2.492
					c0.044,3.476,0.013,6.953,0.014,10.429c0.001,1.58,0.867,2.443,2.45,2.449c0.582,0.002,0.582,0.002,0.582,0.6
					c0,2.219-0.001,4.438,0.001,6.657c0.001,1.192,0.58,1.771,1.768,1.771c8.013,0.001,16.027,0.001,24.04,0
					c1.168,0,1.755-0.583,1.757-1.745c0.002-2.256,0-4.512,0.001-6.768c0-0.512,0.002-0.511,0.52-0.515
					c0.271-0.002,0.541,0.008,0.809-0.058c0.996-0.246,1.69-1.044,1.694-2.069C261.059,438.696,261.061,434.997,261.044,431.299z
					 M232.593,417.162c5.337,0,10.674,0,16.01,0c0.548,0,0.554,0.007,0.554,0.561c0.001,2.243-0.001,4.486,0.001,6.73
					c0.001,0.811,0.249,1.059,1.06,1.059c1.91,0.001,3.821,0,5.731,0.001c0.458,0,0.479,0.021,0.481,0.483
					c0.003,0.887,0.002,1.775,0,2.662c-0.001,0.477-0.024,0.498-0.504,0.499c-3.895,0.001-7.79,0-11.684,0
					c-3.882,0-7.765,0-11.647,0c-0.55,0-0.552-0.001-0.552-0.561c-0.001-3.624-0.001-7.247,0-10.871
					C232.042,417.166,232.047,417.162,232.593,417.162z M255.878,451.579c-3.883,0.001-7.766,0-11.65,0c-3.871,0-7.742,0-11.613,0
					c-0.572,0-0.574-0.002-0.574-0.579c-0.001-1.997-0.001-3.994,0.001-5.991c0-0.464,0.023-0.486,0.478-0.487
					c7.803-0.001,15.607-0.001,23.41,0c0.478,0,0.499,0.02,0.499,0.503c0.002,1.997,0.001,3.994,0,5.991
					C256.431,451.574,256.426,451.579,255.878,451.579z"/>
			</g>
			<g>
				<path style="fill:#FFFFFF;" d="M236.361,440.845c-0.338,0-0.662-0.048-0.971-0.143c-0.309-0.095-0.592-0.239-0.849-0.43
					c-0.257-0.191-0.481-0.425-0.673-0.7c-0.191-0.276-0.342-0.597-0.452-0.965l1.401-0.551c0.103,0.397,0.283,0.726,0.54,0.987
					c0.257,0.261,0.596,0.392,1.015,0.392c0.154,0,0.303-0.02,0.447-0.061c0.143-0.04,0.272-0.099,0.386-0.176
					s0.204-0.175,0.27-0.292c0.066-0.118,0.099-0.254,0.099-0.408c0-0.147-0.026-0.279-0.077-0.397
					c-0.051-0.117-0.138-0.227-0.259-0.331c-0.121-0.103-0.28-0.202-0.475-0.298c-0.195-0.095-0.435-0.195-0.722-0.298l-0.485-0.176
					c-0.213-0.073-0.429-0.173-0.645-0.298c-0.217-0.125-0.413-0.276-0.59-0.452c-0.177-0.176-0.322-0.384-0.436-0.623
					c-0.114-0.239-0.171-0.509-0.171-0.81c0-0.309,0.06-0.597,0.182-0.866c0.121-0.268,0.294-0.503,0.518-0.706
					c0.224-0.202,0.492-0.36,0.805-0.474s0.66-0.171,1.042-0.171c0.397,0,0.74,0.053,1.031,0.16
					c0.291,0.107,0.537,0.243,0.739,0.408c0.202,0.165,0.366,0.348,0.491,0.546c0.125,0.199,0.217,0.386,0.276,0.563l-1.312,0.551
					c-0.074-0.221-0.208-0.419-0.402-0.596c-0.195-0.176-0.462-0.265-0.8-0.265c-0.324,0-0.592,0.075-0.805,0.226
					c-0.213,0.151-0.32,0.348-0.32,0.59c0,0.235,0.103,0.436,0.309,0.601c0.206,0.165,0.533,0.325,0.982,0.48l0.497,0.165
					c0.316,0.111,0.605,0.237,0.866,0.381c0.261,0.143,0.485,0.314,0.673,0.513c0.187,0.199,0.331,0.425,0.43,0.678
					c0.1,0.254,0.149,0.546,0.149,0.877c0,0.412-0.083,0.767-0.248,1.064c-0.165,0.298-0.377,0.542-0.634,0.734
					c-0.258,0.191-0.548,0.335-0.872,0.43C236.986,440.797,236.67,440.845,236.361,440.845z"/>
				<path style="fill:#FFFFFF;" d="M239.516,432.771h1.61l1.633,4.754l0.287,1.015h0.088l0.309-1.015l1.699-4.754h1.61l-2.879,7.897
					h-1.566L239.516,432.771z"/>
				<path style="fill:#FFFFFF;" d="M251.097,436.334h3.871c0.022,0.089,0.04,0.195,0.055,0.32c0.015,0.125,0.023,0.25,0.023,0.375
					c0,0.507-0.078,0.985-0.232,1.434c-0.154,0.449-0.397,0.849-0.728,1.202c-0.353,0.375-0.775,0.666-1.268,0.871
					c-0.493,0.206-1.055,0.309-1.688,0.309c-0.574,0-1.114-0.103-1.621-0.309c-0.507-0.206-0.949-0.492-1.324-0.86
					c-0.375-0.367-0.673-0.803-0.894-1.307c-0.22-0.504-0.331-1.053-0.331-1.649c0-0.595,0.11-1.145,0.331-1.649
					c0.221-0.504,0.518-0.939,0.894-1.307c0.375-0.367,0.816-0.654,1.324-0.86c0.507-0.206,1.047-0.309,1.621-0.309
					c0.64,0,1.211,0.11,1.715,0.331c0.504,0.221,0.936,0.526,1.296,0.915l-1.026,1.004c-0.257-0.272-0.544-0.48-0.861-0.623
					c-0.316-0.143-0.694-0.215-1.136-0.215c-0.36,0-0.702,0.065-1.026,0.193c-0.323,0.129-0.607,0.311-0.849,0.546
					c-0.243,0.235-0.436,0.52-0.579,0.855c-0.143,0.335-0.215,0.708-0.215,1.119c0,0.412,0.072,0.785,0.215,1.12
					c0.143,0.335,0.338,0.62,0.585,0.855c0.246,0.235,0.531,0.418,0.854,0.546c0.324,0.129,0.669,0.193,1.037,0.193
					c0.419,0,0.774-0.061,1.064-0.182c0.29-0.121,0.539-0.278,0.745-0.469c0.147-0.132,0.274-0.3,0.38-0.502
					c0.107-0.202,0.189-0.428,0.248-0.678h-2.482V436.334z"/>
			</g>
			<g>
				<path style="fill:#FFFFFF;" d="M297.3,431.299c-0.006-1.224-0.959-2.121-2.189-2.14c-0.924-0.014-0.832,0.12-0.834-0.867
					c-0.003-1.097-0.007-2.194,0.003-3.292c0.003-0.379-0.112-0.691-0.362-0.976c-2.342-2.668-4.678-5.342-7.019-8.011
					c-0.12-0.137-0.275-0.244-0.414-0.366c-6.214,0-12.427,0-18.641,0c-0.794,0.293-1.14,0.868-1.138,1.709
					c0.01,3.748,0.004,7.496,0.004,11.243c0,0.556-0.003,0.589-0.55,0.551c-1.497-0.102-2.516,0.986-2.497,2.492
					c0.044,3.476,0.013,6.953,0.014,10.429c0.001,1.58,0.867,2.443,2.45,2.449c0.582,0.002,0.582,0.002,0.582,0.6
					c0,2.219-0.001,4.438,0.001,6.657c0.001,1.192,0.58,1.771,1.768,1.771c8.013,0.001,16.027,0.001,24.04,0
					c1.168,0,1.755-0.583,1.757-1.745c0.002-2.256,0-4.512,0.001-6.768c0-0.512,0.002-0.511,0.52-0.515
					c0.271-0.002,0.541,0.008,0.809-0.058c0.996-0.246,1.69-1.044,1.694-2.069C297.315,438.696,297.318,434.997,297.3,431.299z
					 M268.85,417.162c5.337,0,10.674,0,16.01,0c0.548,0,0.554,0.007,0.554,0.561c0.001,2.243-0.001,4.486,0.001,6.73
					c0.001,0.811,0.249,1.059,1.06,1.059c1.91,0.001,3.821,0,5.731,0.001c0.458,0,0.479,0.021,0.481,0.483
					c0.003,0.887,0.002,1.775,0,2.662c-0.001,0.477-0.024,0.498-0.504,0.499c-3.895,0.001-7.79,0-11.684,0
					c-3.882,0-7.765,0-11.647,0c-0.55,0-0.552-0.001-0.552-0.561c-0.001-3.624-0.001-7.247,0-10.871
					C268.299,417.166,268.303,417.162,268.85,417.162z M292.135,451.579c-3.883,0.001-7.766,0-11.65,0c-3.871,0-7.742,0-11.613,0
					c-0.572,0-0.574-0.002-0.574-0.579c-0.001-1.997-0.001-3.994,0.001-5.991c0-0.464,0.023-0.486,0.478-0.487
					c7.803-0.001,15.607-0.001,23.41,0c0.478,0,0.499,0.02,0.499,0.503c0.001,1.997,0.001,3.994,0,5.991
					C292.687,451.574,292.682,451.579,292.135,451.579z"/>
			</g>
			<g>
				<path style="fill:#FFFFFF;" d="M272.966,434.183v1.831h3.165v1.412h-3.165v1.831h3.518v1.412h-5.007v-7.897h5.007v1.412H272.966
					z"/>
				<path style="fill:#FFFFFF;" d="M277.852,440.669v-7.897h2.779c0.375,0,0.726,0.061,1.053,0.182
					c0.327,0.121,0.612,0.292,0.855,0.513c0.243,0.221,0.434,0.483,0.574,0.789c0.14,0.305,0.209,0.642,0.209,1.009
					c0,0.375-0.07,0.715-0.209,1.02c-0.14,0.305-0.331,0.568-0.574,0.789c-0.243,0.221-0.528,0.392-0.855,0.513
					c-0.327,0.121-0.678,0.182-1.053,0.182h-1.29v2.901H277.852z M280.653,436.356c0.389,0,0.684-0.111,0.882-0.331
					c0.199-0.22,0.298-0.474,0.298-0.761c0-0.14-0.024-0.276-0.072-0.408c-0.048-0.132-0.121-0.248-0.221-0.347
					c-0.099-0.099-0.222-0.178-0.37-0.237c-0.147-0.059-0.32-0.089-0.518-0.089h-1.312v2.173H280.653z"/>
				<path style="fill:#FFFFFF;" d="M286.797,440.845c-0.338,0-0.662-0.048-0.971-0.143c-0.309-0.095-0.592-0.239-0.849-0.43
					c-0.257-0.191-0.482-0.425-0.673-0.7c-0.191-0.276-0.342-0.597-0.452-0.965l1.401-0.551c0.103,0.397,0.283,0.726,0.541,0.987
					c0.257,0.261,0.595,0.392,1.015,0.392c0.154,0,0.303-0.02,0.447-0.061c0.143-0.04,0.272-0.099,0.386-0.176
					c0.114-0.077,0.204-0.175,0.27-0.292c0.066-0.118,0.1-0.254,0.1-0.408c0-0.147-0.026-0.279-0.077-0.397
					c-0.051-0.117-0.138-0.227-0.259-0.331c-0.121-0.103-0.279-0.202-0.474-0.298c-0.195-0.095-0.436-0.195-0.723-0.298
					l-0.485-0.176c-0.213-0.073-0.428-0.173-0.645-0.298c-0.217-0.125-0.414-0.276-0.59-0.452c-0.176-0.176-0.322-0.384-0.436-0.623
					c-0.114-0.239-0.171-0.509-0.171-0.81c0-0.309,0.061-0.597,0.182-0.866c0.121-0.268,0.294-0.503,0.518-0.706
					c0.224-0.202,0.493-0.36,0.805-0.474c0.312-0.114,0.66-0.171,1.042-0.171c0.397,0,0.741,0.053,1.031,0.16
					c0.29,0.107,0.537,0.243,0.739,0.408c0.202,0.165,0.365,0.348,0.491,0.546c0.125,0.199,0.217,0.386,0.276,0.563l-1.312,0.551
					c-0.074-0.221-0.208-0.419-0.403-0.596c-0.195-0.176-0.462-0.265-0.799-0.265c-0.324,0-0.592,0.075-0.805,0.226
					c-0.213,0.151-0.32,0.348-0.32,0.59c0,0.235,0.103,0.436,0.309,0.601c0.206,0.165,0.533,0.325,0.982,0.48l0.496,0.165
					c0.316,0.111,0.605,0.237,0.866,0.381c0.261,0.143,0.485,0.314,0.673,0.513c0.187,0.199,0.331,0.425,0.43,0.678
					c0.099,0.254,0.149,0.546,0.149,0.877c0,0.412-0.083,0.767-0.248,1.064c-0.165,0.298-0.377,0.542-0.634,0.734
					c-0.258,0.191-0.548,0.335-0.872,0.43C287.422,440.797,287.105,440.845,286.797,440.845z"/>
			</g>
			<g>
				<path style="fill:#FFFFFF;" d="M321.394,439.168l4.004-4.985h-3.827v-1.412h5.559v1.5l-3.96,4.985h4.004v1.412h-5.779V439.168z"
					/>
				<path style="fill:#FFFFFF;" d="M328.409,432.771h1.489v7.897h-1.489V432.771z"/>
				<path style="fill:#FFFFFF;" d="M331.486,440.669v-7.897h2.779c0.375,0,0.726,0.061,1.053,0.182
					c0.327,0.121,0.612,0.292,0.855,0.513s0.434,0.483,0.574,0.789c0.14,0.305,0.209,0.642,0.209,1.009
					c0,0.375-0.07,0.715-0.209,1.02c-0.14,0.305-0.331,0.568-0.574,0.789c-0.243,0.221-0.528,0.392-0.855,0.513
					c-0.327,0.121-0.678,0.182-1.053,0.182h-1.29v2.901H331.486z M334.288,436.356c0.389,0,0.684-0.111,0.882-0.331
					c0.199-0.22,0.298-0.474,0.298-0.761c0-0.14-0.024-0.276-0.072-0.408c-0.048-0.132-0.121-0.248-0.221-0.347
					c-0.099-0.099-0.222-0.178-0.37-0.237c-0.147-0.059-0.32-0.089-0.518-0.089h-1.312v2.173H334.288z"/>
			</g>
		</g>
		<g style="opacity:0.61;">
			<path style="fill:#FFFFFF;" d="M300.133,433.27h9.067v2.242h-9.067V433.27z M300.133,437.136h9.067v2.243h-9.067V437.136z"/>
		</g>
	</g>
	<g style="opacity:0.61;">
		<path style="fill:#FFFFFF;" d="M156.756,478.878h1.607c1.263,0,2.114,0.812,2.114,1.974c0,1.161-0.851,1.973-2.114,1.973h-1.607
			V478.878z M158.34,482.464c1.049,0,1.725-0.665,1.725-1.612c0-0.947-0.677-1.613-1.725-1.613h-1.167v3.225H158.34z"/>
		<path style="fill:#FFFFFF;" d="M165.139,480.851c0-1.15,0.879-2.007,2.075-2.007c1.184,0,2.069,0.851,2.069,2.007
			c0,1.156-0.885,2.007-2.069,2.007C166.019,482.858,165.139,482.002,165.139,480.851z M168.866,480.851
			c0-0.942-0.705-1.635-1.652-1.635c-0.953,0-1.663,0.693-1.663,1.635c0,0.941,0.71,1.635,1.663,1.635
			C168.162,482.486,168.866,481.793,168.866,480.851z"/>
		<path style="fill:#FFFFFF;" d="M179.596,478.878l-1.331,3.947h-0.44l-1.156-3.366l-1.161,3.366h-0.434l-1.331-3.947h0.429
			l1.139,3.394l1.178-3.394h0.389l1.161,3.411l1.156-3.411H179.596z"/>
		<path style="fill:#FFFFFF;" d="M187.731,478.878v3.947h-0.344l-2.537-3.202v3.202h-0.417v-3.947h0.344l2.543,3.203v-3.203H187.731
			z"/>
		<path style="fill:#FFFFFF;" d="M193.093,478.878h0.417v3.586h2.21v0.361h-2.627V478.878z"/>
		<path style="fill:#FFFFFF;" d="M200.061,480.851c0-1.15,0.879-2.007,2.075-2.007c1.184,0,2.069,0.851,2.069,2.007
			c0,1.156-0.885,2.007-2.069,2.007C200.941,482.858,200.061,482.002,200.061,480.851z M203.788,480.851
			c0-0.942-0.705-1.635-1.652-1.635c-0.953,0-1.663,0.693-1.663,1.635c0,0.941,0.71,1.635,1.663,1.635
			C203.083,482.486,203.788,481.793,203.788,480.851z"/>
		<path style="fill:#FFFFFF;" d="M211.636,481.77h-2.199l-0.474,1.054h-0.434l1.804-3.947h0.412l1.804,3.947h-0.44L211.636,481.77z
			 M211.484,481.432l-0.947-2.12l-0.947,2.12H211.484z"/>
		<path style="fill:#FFFFFF;" d="M217.28,478.878h1.607c1.263,0,2.114,0.812,2.114,1.974c0,1.161-0.851,1.973-2.114,1.973h-1.607
			V478.878z M218.864,482.464c1.049,0,1.725-0.665,1.725-1.612c0-0.947-0.677-1.613-1.725-1.613h-1.167v3.225H218.864z"/>
		<path style="fill:#FFFFFF;" d="M234.041,481.77h-2.199l-0.474,1.054h-0.434l1.804-3.947h0.412l1.804,3.947h-0.44L234.041,481.77z
			 M233.889,481.432l-0.947-2.12l-0.947,2.12H233.889z"/>
		<path style="fill:#FFFFFF;" d="M239.685,478.878h0.417v3.586h2.21v0.361h-2.627V478.878z"/>
		<path style="fill:#FFFFFF;" d="M247.082,478.878h0.417v3.586h2.21v0.361h-2.627V478.878z"/>
		<path style="fill:#FFFFFF;" d="M260.449,479.239v1.551h2.041v0.361h-2.041v1.675h-0.417v-3.947h2.706v0.361H260.449z"/>
		<path style="fill:#FFFFFF;" d="M267.678,478.878h0.417v3.947h-0.417V478.878z"/>
		<path style="fill:#FFFFFF;" d="M273.456,478.878h0.417v3.586h2.21v0.361h-2.627V478.878z"/>
		<path style="fill:#FFFFFF;" d="M283.644,482.464v0.361h-2.791v-3.947h2.706v0.361h-2.289v1.404h2.041v0.355h-2.041v1.466H283.644z
			"/>
		<path style="fill:#FFFFFF;" d="M294.672,479.239v1.551h2.041v0.361h-2.041v1.675h-0.417v-3.947h2.706v0.361H294.672z"/>
		<path style="fill:#FFFFFF;" d="M301.5,480.851c0-1.15,0.879-2.007,2.075-2.007c1.184,0,2.069,0.851,2.069,2.007
			c0,1.156-0.885,2.007-2.069,2.007C302.379,482.858,301.5,482.002,301.5,480.851z M305.226,480.851
			c0-0.942-0.705-1.635-1.652-1.635c-0.953,0-1.663,0.693-1.663,1.635c0,0.941,0.71,1.635,1.663,1.635
			C304.522,482.486,305.226,481.793,305.226,480.851z"/>
		<path style="fill:#FFFFFF;" d="M313.351,482.825l-0.902-1.269c-0.102,0.011-0.203,0.017-0.316,0.017h-1.06v1.252h-0.417v-3.947
			h1.477c1.004,0,1.613,0.507,1.613,1.353c0,0.62-0.327,1.054-0.902,1.24l0.964,1.353H313.351z M313.328,480.231
			c0-0.632-0.417-0.992-1.207-0.992h-1.048v1.979h1.048C312.911,481.218,313.328,480.851,313.328,480.231z"/>
		<path style="fill:#FFFFFF;" d="M322.907,478.878v3.947h-0.4v-3.158l-1.551,2.656h-0.197l-1.551-2.639v3.14h-0.4v-3.947h0.344
			l1.714,2.926l1.697-2.926H322.907z"/>
		<path style="fill:#FFFFFF;" d="M330.744,481.77h-2.199l-0.473,1.054h-0.434l1.804-3.947h0.411l1.804,3.947h-0.44L330.744,481.77z
			 M330.592,481.432l-0.947-2.12l-0.947,2.12H330.592z"/>
		<path style="fill:#FFFFFF;" d="M336.957,479.239h-1.387v-0.361h3.192v0.361h-1.387v3.586h-0.417V479.239z"/>
		<path style="fill:#FFFFFF;" d="M343.063,482.346l0.164-0.321c0.282,0.276,0.784,0.479,1.302,0.479c0.739,0,1.06-0.31,1.06-0.699
			c0-1.083-2.43-0.417-2.43-1.877c0-0.581,0.451-1.083,1.455-1.083c0.446,0,0.908,0.13,1.224,0.35l-0.141,0.333
			c-0.338-0.22-0.733-0.327-1.083-0.327c-0.722,0-1.043,0.321-1.043,0.716c0,1.083,2.43,0.429,2.43,1.866
			c0,0.581-0.462,1.077-1.472,1.077C343.937,482.858,343.356,482.65,343.063,482.346z"/>
	</g>
</g>
<g>
</g>
<g>
	<path style="fill-rule:evenodd;clip-rule:evenodd;fill:#243880;" d="M426.636,49.177c2.492,0.005,5.141-0.081,7.613,0.012
		c2.508,0.094,4.02,0.906,3.926,3.597c-0.165,4.779-7.569,3.401-11.529,3.465L426.636,49.177L426.636,49.177z M420.564,73.035
		l6.024,0.12l0.05-12.06c5.211,0,5.838,1.226,7.902,4.511c1.639,2.609,3.453,4.977,5.055,7.488l7.112,0.066
		c-0.268-0.985-3.431-5.864-4.089-6.836c-0.921-1.361-1.275-2.036-2.374-3.272c-1.555-1.751-1.439-1.218-2.483-2.258
		c-0.39-0.388-0.16-0.096-0.486-0.551c3.325-0.462,5.703-2.111,6.685-4.94c1.354-3.903-0.1-7.251-2.17-9.151
		c-2.308-2.118-5.695-2.128-9.445-2.122c-3.129,0.005-8.969-0.331-11.767,0.116L420.564,73.035L420.564,73.035z"/>
	<path style="fill-rule:evenodd;clip-rule:evenodd;fill:#312782;" d="M237.56,233.481c0.864,1.389,8.591,99.664,9.549,110.471
		l2.651,31.178c0.493,1.918,0.22,0.263,0.586,1.262c0.528,1.441,0.06,51.628,0.055,53.99c-0.019,9.808,0.213,19.99-0.09,29.751
		c-0.107,0.065-0.506,0.423-0.534,0.441c-1.378,0.87-13.82,0.578-15.562,0.528l-0.303-0.358c-0.859-0.705,0.547-0.134-0.821-0.371
		c0.618-24.069,0.104-50.486,0.18-75.087c0.008-2.505,0.018-5.011,0.024-7.516c0.002-0.852-0.096-3.025,0.064-3.723
		c0.375-1.635,0.147,0.117,0.554-1.185l2.085-118.793c0.172-9.307,0.92-20.286,0.293-29.45l-1.624,9.855l-18.043,104.095
		c-2.604-0.279-8.143-2.168-11.008-2.994c-1.123-0.324-9.764-2.421-10.508-3.214l24.433-65.134
		c1.754-4.508,13.587-37.581,14.778-38.813l0.129-1.408l-0.336-0.245l-3.083,6.562c-4.197,7.806-12.018,24.001-15.948,32.292
		c-3.99,8.419-8.805,17.284-12.804,25.725l-9.53,19.276c-1.502,3.282-9.004,17.688-9.41,19.456
		c-3.385-1.061-11.714-5.066-16.095-6.825c-1.006-0.404-1.692-0.777-2.615-1.15l-2.543-1.321c5.646-8.451,19.821-26.142,27.153-36.2
		l6.85-9.123c4.13-6.044,15.341-20.496,20.181-26.799l15.866-21.084c0.531-0.73,1.533-1.986,1.914-2.721l-63.807,69.849
		c-0.485,0.581-0.8,1.016-1.305,1.505l-8.814,9.677c-2.493,2.819-5.394,5.469-7.488,8.474c-1.39-0.843-15.397-14.249-16.566-16.125
		c1.092-1.063,1.824-1.47,3.051-2.401c1.055-0.8,1.96-1.528,3.001-2.323c1.949-1.489,4.039-3.21,6.046-4.603
		c7.032-4.877,16.929-13.151,24.178-18.417l27.235-20.671c1.071-0.824,1.956-1.683,2.968-2.355l27.266-20.651
		c0.951-0.735,1.989-1.725,2.921-2.297l0.045,0.021c-2.236,1.002-24.486,14.882-26.037,15.851c-4.292,2.682-9.006,5.362-12.98,8.012
		l-19.594,12.023c-6.783,3.786-16.119,10.222-22.687,13.955c-6.729,3.824-16.228,10.362-22.49,13.77
		c-0.958-0.882-8.089-15.091-8.808-17.273c1.97-0.572,4.954-1.97,7.035-2.926c2.131-0.978,4.556-1.899,6.839-2.866l41.186-17.369
		c15.555-6.466,32.601-14.083,47.984-20.3c1.765-0.713,5.225-2.437,6.906-2.756c-0.222-0.421,0.396-0.461-0.529-0.267
		c-3.444,0.768-80.303,26.905-84.389,28.35l-21.07,7.094c-1.764,0.637-5.419,2.018-6.986,2.259l-3.427-17.794l118.137-21.631
		l-0.832-0.071l-117.975,13.848c-0.174-2.401,0.647-18.067,1.212-19.507l120.316,4.406l0.014-0.03l-118.652-13.72
		c-0.107-1.841,6.765-18.879,7.769-22.767l103.237,33.274c-3.269-1.841-8.285-3.564-12.087-5.116l-62.225-25.144
		c-8.355-3.362-16.843-6.961-24.961-10.077c1.691-4.007,9.909-14.36,12.276-19.192c1.614,0.55,4.039,2.466,5.594,3.472
		l73.473,48.017c1.883,1.222,3.729,2.476,5.672,3.734c1.835,1.188,3.827,2.678,5.791,3.597
		c-2.484-3.637-27.037-22.206-32.488-26.691l-16.377-13.056c-5.649-4.501-10.96-8.87-16.569-13.181
		c-5.622-4.321-10.767-8.615-16.374-13.07l-24.761-19.701c-2.769-2.208-5.409-4.335-8.2-6.518l-12.364-9.882
		c-1.201-1.009-3.13-2.691-4.506-3.288c-0.673,3.072-8.533,20.859-10.006,24.553L68.718,185.31c-1.258,3.06-2.062,3.116-0.728,6.384
		l7.662,18.341c3.241,7.619,2.431,4.967-0.607,12.005l-11.284,23.15c-4.092,7.699-7.543,15.29-11.301,23.156
		c-0.92,1.925-8.354,15.659-8.113,17.199c0.263,1.68,4.38,9.645,5.419,11.746c0.864,1.748,1.727,4.364,2.81,5.885
		c2.93,0.222,6.683,0.006,9.708-0.02c3.237-0.027,7.07-0.841,8.362,1.429c0.865,1.519,2.952,5.433,3.021,6.773
		c0.312,6.012-1.515,26.666,0.98,29.627l6.125,7.654c0.639,0.752,1.838,1.769,1.392,3.269c-0.169,0.569-3.248,4.899-3.89,5.836
		c-2.249,3.28-1.79,2.96-1.847,7.818c-0.048,4.032,0.839,3.615,3.47,6.183c11.306,11.031,11.698,8.676,8.324,16.885
		c-1.433,3.487-4.922,10.998-5.625,14.195c2.473,3.804,18.287,20.948,19.638,23.971c6.08,0.345,13.065-0.002,19.238-0.043
		c6.472-0.043,12.946-0.122,19.417-0.161c3.147-0.019,65.704-0.727,67.289-0.28c2.431,0.686,1.56,5.476,1.55,8.143
		c-0.048,13.004-0.074,26.013-0.059,39.017l227.28-1.475l0.256-107.16l-53.611,0.322c-2.505,0.019-5.558,0.556-6.788-0.872
		c-1.118-2.058,1.259-3.49,3.651-5.626l4.994-4.405c2.444-2.438,5.008-4.201,7.362-6.727c0.917-0.984,1.745-1.211,2.399-2.328
		c-1.174-2.17-11.557-9.476-14.153-11.555c-1.624-1.3-3.217-2.594-4.922-3.846l-9.71-7.513c-3.257-2.604-6.439-4.92-9.674-7.551
		l-19.369-15.084c-6.543-4.879-12.862-9.994-19.403-15.044l-62.934-48.862c-2.052-1.643-12.742-10.367-14.767-11.156
		c0.411,0.956,2.737,3.864,3.523,4.859c7.524,9.527,15.474,18.787,23.12,28.242l27.093,33.037
		c6.558,7.98,17.366,20.663,23.156,28.201c0.608,0.791,1.183,1.492,1.823,2.249l29.063,35.452c1.374,1.662,2.465,3.034,3.817,4.63
		c1.448,1.708,2.503,3.067,3.954,4.821c2.02,2.441,6.358,6.907,7.645,9.576l49.87-0.236c1.582,2.298,0.974,1.993,1.004,6.107
		c0.023,3.163,0.555,10.998-0.179,13.524l-0.109,0.328c-0.307,1.053,0.383-0.955-0.128,0.521
		c-0.725,2.093-12.197,15.889-14.365,18.828c-6.896,9.352-14.182,18.022-21.096,27.437l-2.326,2.98
		c-0.522,0.709-0.436,0.559-0.783,1.303l37.983-0.112c0.568,0.963,0.017,0.345,0.864,0.955c0.002,11.566,1.254,12.686-3.353,12.654
		c-7.513-0.051-48.708,0.86-50.854,0.08c-1.319-0.479-1.458-1.128-2.255-2.551c-4.888-8.74-9.477-17.653-14.658-26.375
		l-18.38-32.971c-1.028-1.877-3.071-5.105-3.544-6.73l-8.871,0.043l-0.143,61.488c-0.005,1.81,0.541,5.528-0.456,7.095
		c-0.028,0.045-0.372,0.423-0.443,0.54c-3.115,0.088-6.274,0.069-9.395,0.099c-1.237,0.012-3.587,0.172-4.692,0.041l-1.307-0.531
		c-1.065-0.968-4.211-15.392-4.719-17.541c-2.432-10.288-5.101-20.799-7.663-30.761c-5.252-20.422-9.942-40.832-15.309-61.427
		c-9.354-35.892-17.799-71.407-26.775-107.347c-0.795-3.183-2.899-13.494-4.045-15.394
		C237.445,229.637,237.907,231.637,237.56,233.481L237.56,233.481z M332.482,72.516c0.021-3.849,1.123-9.605,1.63-13.526
		c2.9-22.435,4.189-19.283-3.674-22.038c-11.54-4.043-9.588-5.947-15.717-1.146l-17.057,13.002
		c-5.702,4.408-5.191,5.023-9.895,5.026c-2.381,0.001-4.78,0.011-7.16,0.049c-1.906-6.501-3.361-13.596-5.163-20.121
		c-2.83-10.246-0.733-11.551-7.721-11.477c-2.088,0.022-4.176,0.025-6.263,0.046c-2.093,0.021-4.546-0.08-6.588,0.039
		c-2.225,0.13-2.165,1.261-3.28,2.924c-1.614,2.407-3.206,5.205-4.837,7.693c-2.674,4.079-6.959,12.106-9.826,15.453l-11.798,0.016
		c-1.474-2.522-5.187-13.358-6.469-16.825c-4.125-11.153-2.006-8.978-14.2-8.92c-3.96,0.019-7.952,0.085-11.908,0.058
		c-2.115-0.014-3.547-0.428-4.141,1.734c-1.123,4.085-2.965,23.313-4.011,24.753c-1.672,1.09-6.046,2.697-8.251,3.639
		c-1.648,0.705-7.195,3.379-8.644,3.252c-2.51-3.134-4.526-6.016-6.89-9.073c-11.104-14.363-8.482-14.387-16.119-11.144
		c-1.681,0.714-10.088,3.784-10.705,4.996c-0.767,2.118,0.795,27.627,0.793,32.519c-2.011,1.6-8.971,8.423-10.296,8.944
		c-2.802-1.546-5.814-4.464-8.541-6.437l-13.667-10.444c-2.032-1.586-3.564-3.783-5.85-1.095
		c-2.076,2.441-13.56,13.89-13.967,15.219c-0.224,2.014,2.016,6.22,2.833,8.16c1.082,2.569,2.06,5.088,3.096,7.565
		c1.058,2.528,2.085,5.093,3.121,7.515c2.976,6.96,4.211,6.746,2.014,11.902l-17.17,41.701c-4.101,9.824-8.05,20.308-12.477,30.118
		c-1.667,3.694-0.414,4.543,1.077,8.017l7.924,18.979c0.899,2.019,0.886,2.215-0.063,4.159l-31.64,64.513
		c-1.921,3.782-0.692,4.247,0.895,7.865c2.142,4.882,4.491,9.651,6.7,14.566c0.696,1.548,0.931,2.547,2.731,2.717
		c4.717,0.446,10.965-0.489,15.989-0.085c2.889,3.914,2.192,6.259,2.175,11.57c-0.014,4.489-0.025,8.978-0.044,13.466
		c-0.033,7.802-0.943,7.503,2.149,11.374l5.906,7.417c-0.585,2.287-4.005,5.626-4.906,7.775c-0.304,0.725-0.89,10.433,0.48,11.833
		c2.351,2.402,11.271,10.769,12.69,12.648c-0.597,2.93-5.155,13.041-6.609,16.57c-0.614,1.49-1.532,3.107-0.51,4.657
		c1.556,2.36,5.73,6.829,7.718,9.192l13.103,15.714c1.318,1.672,1.747,1.503,4.169,1.438c17.907-0.48,38.401-0.348,56.375-0.387
		c7.664-0.017,41.257-0.695,45.619-0.209c-0.063,5.616-0.562,44.26,0.248,46.219c1.717,1.725,7.726,0.945,10.504,0.926
		c72.939-0.491,145.951-0.675,218.905-1.394c5.684-0.056,5.812,0.804,5.802-5.037l0.116-66.08
		c0.026-7.389,0.653-39.045-0.138-43.713c-4.213-1.377-9.708-0.526-14.236-0.499c-4.801,0.029-9.605,0.063-14.406,0.116
		c-5.97,0.066-23.587,0.516-28.306,0.076c1.77-0.97,5.42-5.029,7.151-6.574c0.83-0.741,1.614-1.194,2.414-1.968
		c6.461-6.251,7.598-4.959,4.51-10.567c-2.182-3.961-4.013-8.019-6.341-12.123c-1.532-2.699-5.376-9.394-6.245-12.123
		c2.621-1.787,8.257-6.716,11.135-6.747c6.054-0.066,12.13-0.046,18.189-0.092c11.458-0.086,10.496,1.71,12.279-5.964
		c0.689-2.967,3.506-12.731,3.012-15.124c-0.37-0.766-14.681-10.029-17.627-12.034c-0.858-0.584-1.706-1.064-2.474-1.698
		l1.633-16.55c1.926-1.26,24.69-5.03,29.3-6.199c1.059-3.377,0.505-9.182,0.514-13.258c0.018-7.925,1.136-10.015-2.641-10.93
		c-7.247-1.756-14.544-3.689-21.788-5.475l0.043-16.89c3.672-1.718,19.078-10.857,23.35-13.443c1.682-1.018,2.857-0.953,2.941-3.343
		c0.067-1.904-0.019-4.041-0.016-5.975c0.028-14.278,2.813-12.594-11.208-13.626c-7.555-0.556-15.059-1.069-22.644-1.807
		l-4.725-11.499c1.026-1.244,1.48-1.707,2.705-2.962l4.992-5.656c1.204-1.226,1.537-1.579,2.538-2.788l5.268-5.688
		c1.077-1.326,4.55-4.231,5.014-5.768c0.49-1.621-6.041-15.13-7.357-18.126c-0.597-1.359-1.594-4.806-2.763-5.497
		c-1.599-0.857-6.591,1.069-8.562,1.622l-16.561,4.697c-2.659,0.729-5.759,1.871-8.458,2.295c-0.824-2.379-4.217-7.817-5.681-10.26
		c-1.425-2.379-0.538-2.946,0.574-5.572c0.776-1.833,1.525-3.799,2.275-5.561c1.575-3.697,3.032-7.656,4.61-11.369
		c3.177-7.473,3.453-4.956-11.413-16.152c-1.578-1.189-2.909-3.048-5.034-2.147c-6.803,2.882-20.711,11.648-26.105,13.187
		C339.024,78.833,334.985,74.548,332.482,72.516L332.482,72.516z M229.602,163.205c1.06,7.545,1.953,15.101,3.046,22.712
		l2.904,22.246c0.238-0.866-9.397-40.429-10.513-45.179c-1.542-6.564-31.672-133.945-31.72-136.104l17.954-0.08
		c1.439,7.023,2.148,15.673,3.111,22.848c1.016,7.568,2.069,15.077,3.056,22.726c1.946,15.095,4.194,30.241,6.056,45.237
		C225.39,132.873,227.453,147.908,229.602,163.205L229.602,163.205z M256.567,26.511l11.894-0.088
		c-1.237,10.289-4.994,29.692-6.86,41.092c-2.221,13.572-4.478,27.34-6.88,40.838c-0.865,4.859-12.863,79.394-13.914,81.585
		L256.567,26.511L256.567,26.511z M237.809,205.512c-0.382-7.614,0.143-16.374,0.279-24.099l1.879-119.625
		c0.17-13.318-1.171-7.881,5.551-19.086l9.337-14.647L237.809,205.512L237.809,205.512z M222.091,52.506
		c0.757,3.631,8.616,93.875,9.863,107.978c0.532,6.012,1.731,13.921,1.706,19.763l-0.427-1.302
		c-0.039-0.196-0.105-0.842-0.138-1.098l-2.221-16.472c-0.793-6.249-1.684-12.547-2.517-18.836l-10.153-75.666
		c-0.895-6.342-1.668-12.469-2.528-18.79c-0.426-3.129-2.436-16.833-2.383-18.792L222.091,52.506L222.091,52.506z M243.424,204.6
		c2.264-7.434,5.177-15.142,7.608-22.664c2.452-7.587,5.006-14.901,7.608-22.449c10.341-30.001,20.178-60.392,30.594-90.348
		l3.79-11.209c0.65-1.229,10.275-8.115,12.581-9.931l12.801-9.673c-0.76,2.669-3.436,7.783-4.675,10.596
		c-2.787,6.323-6.94,14.788-9.355,20.711c-1.43,3.506-3.211,6.846-4.689,10.347c-2.941,6.966-6.339,13.991-9.415,20.964
		l-18.79,41.649c-6.287,13.554-12.37,28.101-18.691,41.464C250.764,188.34,245.252,201.401,243.424,204.6L243.424,204.6z
		 M221.24,187.537l-26.4-54.735c-2.741-5.987-5.849-12.274-8.757-18.169c-3.096-6.278-6.028-12.227-8.847-18.41
		c-5.373-11.785-12.279-24.655-17.638-36.532c-1.56-3.456-8.013-15.95-8.752-18.34l1.682,1.903c0.636,0.84,0.867,1.086,1.494,1.95
		l11.772,15.47c1.97,1.337,0.497-1.533,2.806,3.772c1.425,3.275,2.706,6.202,4.043,9.432c7.766,18.753,16.549,38.104,24.446,56.983
		c2.637,6.305,5.292,12.602,8.08,18.863c2.729,6.127,5.265,12.952,8.145,19.068l6.101,14.235
		C220.045,184.508,220.924,186.242,221.24,187.537L221.24,187.537z M269.286,151.046c1.636-3.554,3.078-7.03,4.7-10.35
		c1.635-3.345,3.049-6.818,4.656-10.36l13.936-30.869c2.959-6.876,6.223-13.508,9.263-20.493c2.933-6.739,6.086-13.892,9.225-20.524
		c1.594-3.368,3.039-7.043,4.679-10.349c1.043-2.103,3.947-8.01,4.482-10.294c1.26,0.126,9.953,3.314,10.938,3.933l-5.318,10.222
		c-4.615,9.288-10.957,20.443-15.93,30.102c-10.366,20.136-21.431,40.349-31.925,60.458l-31.789,60.061L269.286,151.046
		L269.286,151.046z M147.78,39.097l4.853,9.692c1.601,3.287,3.184,6.702,4.772,9.92c17.639,35.752,34.669,72.767,52.341,108.361
		l14.029,29.346c-1.402-2.818-3.707-6.571-5.368-9.521l-16.004-28.77c-3.704-6.459-7.066-13.056-10.752-19.303
		c-1.891-3.204-3.613-6.369-5.381-9.662c-13.521-25.194-29.197-51.528-42.646-76.678l-5.227-9.502L147.78,39.097L147.78,39.097z
		 M254.735,189.705c8.479-15.838,17.188-33.264,25.679-48.541c8.529-15.345,17.191-32.972,25.74-48.783
		c1.705-3.154,3.48-6.396,5.138-9.59l20.508-38.822c-0.154,3.831-2.63,21.26-3.304,26.365c-0.198,1.501-0.103,1.864-0.81,2.88
		c-0.384,0.552-1.023,1.441-1.523,2.242l-19.798,32.189c-7.223,10.942-15.205,25.072-22.685,36.806
		c-3.884,6.093-7.491,12.38-11.339,18.411l-17.077,27.712c-1.788,2.957-3.769,6.206-5.613,8.98L254.735,189.705L254.735,189.705z
		 M177.739,132.358c-12.458-18.658-25.441-38.742-38.069-57.137c-1.319-1.921-1.023-4.238-1.098-7.005l-0.734-22.776l34.088,61.075
		c15.118,26.811,30.165,54.686,45.403,81.444l11.213,20.436c-0.937-1.047-2.365-3.313-3.348-4.802L177.739,132.358L177.739,132.358z
		 M230.976,195.199c-3.653-11.822-8.904-28.994-12.08-40.728c-3.699-13.666-8.195-27.236-12.056-40.874
		c-5.759-20.34-12.548-41.347-18.134-61.402c-0.766-2.75,2.635-18.686,3.079-22.875c0.07,0.071,0.145,0.167,0.189,0.231l5.117,20.52
		c4.695,20.637,10.111,41.785,14.532,62.163c2.994,13.8,6.37,27.637,9.735,41.609L230.976,195.199L230.976,195.199z M236.39,190.619
		c-0.657-1.529-5.82-61.661-6.448-68.701c-2.048-22.972-4.715-46.385-6.278-69.296l14.958-0.036L236.39,190.619L236.39,190.619z
		 M260.123,132.432c3.278-12.319,6.477-25.102,9.599-37.35l7.17-27.921c0.658-2.702,1.49-6.703,2.397-9.121l12.034-0.103
		c-0.544,2.678-2.215,6.907-3.154,9.611l-47.156,139.368L260.123,132.432L260.123,132.432z M269.746,28.337
		c1.188,5.912,5.089,19.555,6.866,26.703c0.729,2.931,1.31,2.239,0.435,5.46c-4.763,17.543-8.946,35.691-13.737,53.514
		c-1.938,7.21-3.808,14.34-5.538,21.473c-4.287,17.67-9.395,35.839-13.755,53.553c-0.325,1.319-2.225,9.504-3.086,10.631
		L269.746,28.337L269.746,28.337z M168.668,60.455c4.242-1.205,15.461-7.052,18.571-7.656c0.736,1.418,5.1,17.119,6.141,20.43
		c2.045,6.505,4.128,13.896,6.029,20.483c10.844,37.582,22.661,75.756,33.371,113.17c0.941,3.288,2.361,7.138,2.882,10.131
		l-8.426-19.536c-2.534-6.543-5.607-13.021-8.34-19.52c-5.339-12.699-11.655-26.507-16.735-39.008
		c-7.754-19.082-17.116-39.545-25.177-58.75C175.529,76.729,169.214,62.734,168.668,60.455L168.668,60.455z M209.163,189.182
		l-72.477-79.98c-0.765-0.776-1.047-0.945-1.701-1.743l-33.464-37.072c5.4,3.751,10.6,8.143,16.084,12.181
		c1.387,1.022,2.731,2.054,4.075,3.127c3.855,3.077,2.572,0.48,4.328,2.548c2.297,2.706,4.06,5.032,6.358,7.742l44.899,54.375
		c2.074,2.637,4.288,5.315,6.361,7.731c2.29,2.669,4.319,5.161,6.531,7.873L209.163,189.182L209.163,189.182z M248.372,207.954
		c1.163-1.65,2.134-2.84,3.426-4.579l20.341-26.943c1.279-1.655,2.195-2.758,3.404-4.426c2.24-3.092,4.472-5.932,6.883-9.091
		l47.679-62.876c2.484-3.196,4.471-5.968,6.895-9.075c1.106-1.418,2.235-3.265,3.367-4.45l26.053-13.418
		c-1.813,2.571-1.653,1.958-2.879,3.397l-11.789,13.576c-1.998,2.593-8.131,8.989-11.101,12.698l-29.585,33.679
		c-1.037,1.008-2.659,3.002-3.618,4.209c-1.227,1.545-2.543,2.756-3.845,4.296l-7.271,8.39c-0.702,0.87-1.227,1.221-1.93,2.144
		l-20.284,23.244C266.123,188.176,256.306,198.572,248.372,207.954L248.372,207.954z M92.373,74.647
		c1.436-1.313,3.514-4.359,5.613-5.788c0.948,0.734,1.291,1.5,2.131,2.377l6.174,6.662c0.83,0.797,1.308,1.441,2.042,2.349
		l22.39,24.585c0.778,0.796,1.194,1.547,1.991,2.39l22.545,24.748c3.23,4.008,9.352,9.99,12.182,13.497
		c0.815,1.01,1.151,1.272,2.115,2.264c0.73,0.751,1.145,1.459,1.845,2.23l10.341,11.262c0.812,0.827,1.173,1.525,2.034,2.36
		c1.055,1.023,1.29,1.315,2.098,2.287l36.44,40.277c1.006,1.018,1.19,1.119,1.972,2.103l3.853,4.434l-62.125-57.644
		c-5.571-4.878-13.73-12.903-19.959-18.566c-0.803-0.73-1.422-1.534-2.178-2.206l-39.772-36.958
		c-0.849-0.747-1.352-1.488-2.168-2.214c-0.873-0.776-1.505-1.289-2.36-2.023l-4.361-4.092c-1.106-0.954-8.121-7.615-8.382-8.41
		L92.373,74.647L92.373,74.647z M280.595,173.611c0.7-0.746,1.037-1.353,1.716-2.042c0.929-0.942,0.997-1.119,1.719-2.034
		c1.899-2.406,6.287-6.782,8.646-9.833l17.298-19.654c0.97-1.207,2.295-2.809,3.343-3.869l5.289-5.981
		c0.716-0.787,0.903-1.229,1.715-2.038c2.955-2.945,7.833-9.08,11.303-12.819l33.645-38.384c1.126-1.439,2.408-2.507,3.205-4.001
		c1.528,0.605,4.578,3.132,5.995,4.225c1.596,1.232,4.44,3.096,5.574,4.33l-11.293,11.145c-1.364,1.303-2.495,2.359-3.875,3.644
		l-45.746,44.13c-7.566,7.01-15.533,15.335-22.869,22.228c-2.582,2.426-5.329,4.734-7.786,7.246L258.2,199.179L280.595,173.611
		L280.595,173.611z M247.307,212.039c1.451-1.586,2.646-2.786,4.046-4.094l33.098-32.036c8.23-7.577,16.691-16.05,24.967-23.893
		l18.664-17.974c0.759-0.775,1.148-1.4,1.937-2.135l16.662-15.905c2.774-3.195,5.482-5.145,8.315-7.972l12.33-12.097
		c1.489-1.401,2.726-2.519,4.216-3.923c2.723-2.566,5.595-5.794,8.256-7.933l-4.596,11.591c-0.793,1.982-3.881,10.312-4.787,11.501
		l-30.746,26.249c-1.584,1.234-2.88,2.443-4.403,3.734l-8.798,7.486c-1.56,1.235-2.924,2.525-4.388,3.752
		c-0.846,0.709-1.531,1.266-2.211,1.861c-0.474,0.416-0.603,0.634-1.131,1.063l-18.599,15.848
		c-3.733,3.522-11.599,9.552-15.397,13.095c-0.611,0.57-1.39,1.257-2.165,1.912l-5.614,4.719c-0.5,0.457-0.491,0.504-0.978,0.904
		c-7.417,6.096-17.21,15.053-24.204,20.587C250.481,209.408,248.532,211.348,247.307,212.039L247.307,212.039z M210.034,198.238
		l-12.361-9.727c-0.767-0.648-1.411-1.139-2.075-1.68l-67.476-53.727c-5.638-4.448-10.684-8.572-16.383-13.053l-12.377-9.851
		c-1.844-1.544-5.624-12.387-6.777-15.117c-1.333-3.154-3.309-7.367-4.206-10.374l19.093,17.697c1.363,1.165,2.33,2.344,3.684,3.521
		l30.527,28.347c6.622,6.241,16.339,15.707,22.832,21.324L210.034,198.238L210.034,198.238z M328.791,74.541l10.378,10.729
		c-0.407,1.255-10.342,13.936-11.375,15.3l-68.836,90.865c-1.955,2.69-3.957,5.131-5.839,7.636
		c-0.997,1.327-1.932,2.505-2.861,3.716c-0.947,1.236-1.846,2.662-2.888,3.672L328.791,74.541L328.791,74.541z M129.477,83.569
		c2.285-2.003,6.87-6.906,8.932-7.781l63.914,96.168c2.793,4.223,19.212,28.371,21.178,31.957c-0.969-1.118-2.116-2.419-3.092-3.678
		l-12.169-14.763c-0.712-0.866-0.978-1.156-1.595-1.854l-4.543-5.475c-0.952-1.125-1.955-2.531-2.943-3.637
		c-2.107-2.358-3.965-5.003-6.1-7.365c-3.346-3.702-8.584-10.566-12.185-14.748l-54.38-66.183L129.477,83.569L129.477,83.569z
		 M259.319,207.071c4.213-3.298,12.661-8.706,17.751-12.234c6.089-4.22,11.847-8.044,17.857-12.202
		c9.544-6.604,22.573-15.006,31.287-21.323c1.534-1.112,2.732-1.967,4.258-2.955c6.371-4.128,11.768-8.212,17.831-12.232
		c5.919-3.924,11.647-7.907,17.679-12.07c3.16-2.181,5.56-3.801,8.94-6.082c1.571-1.059,2.884-1.964,4.45-3.077
		c2.858-2.033,13.315-4.527,16.977-5.541c3.769-1.044,7.982-2.561,11.819-3.238c-0.429,0.498-0.053,0.116-0.596,0.578
		l-27.401,16.814c-3.147,1.913-6.218,3.856-9.355,5.68L259.319,207.071L259.319,207.071z M252.839,209.482
		c0.755-0.373,2.691-2.329,3.575-3.051c0.734-0.599,1.181-1.06,1.858-1.582c0.746-0.576,1.099-1.017,1.837-1.61l14.87-12.686
		c11.664-9.446,25.309-21.549,36.861-31.418l44.427-37.932c2.179-1.618,13.6-11.917,14.802-12.455l8.119,14.415
		c-2.388,1.961-5.418,3.73-7.943,5.487l-23.641,16.133c-10.264,7.275-21.201,14.407-31.623,21.618
		c-10.922,7.557-21.054,14.235-31.635,21.601c-2.844,1.98-5.235,3.562-7.965,5.502C269.23,198.588,259.363,204.696,252.839,209.482
		L252.839,209.482z M292.533,188.694c1.673-1.003,2.929-1.825,4.666-2.856l28.986-17.663c22.213-13.811,45.193-27.39,67.518-41.157
		c5.165-3.185,14.393-9.028,19.331-11.709l7.511,16.936c-1.002,0.884-3.523,1.784-4.991,2.502c-1.812,0.885-3.296,1.609-5.078,2.441
		c-3.292,1.536-6.807,3.267-10.181,4.85c-3.556,1.668-6.752,3.308-10.157,4.867l-50.474,24.061
		c-6.073,2.821-14.464,7.197-20.339,9.738c-6.824,2.951-13.362,6.679-20.151,9.604l-10.175,4.849
		c-4.396,2.199-26.016,12.659-30.432,14.417L292.533,188.694L292.533,188.694z M257.416,211.963c3.061-1.271,6.631-3.288,10-4.859
		c16.857-7.861,33.826-16.364,50.487-24.04l30.313-14.495c5.882-2.952,14.734-6.759,20.357-9.668
		c3.438-1.779,6.771-3.207,9.96-4.756l35.396-16.91c1.513-0.729,3.379-1.778,5.075-2.273c-0.412,0.963-9.739,11.083-10.683,11.986
		l-5.318,5.958c-4.978,4.862-0.319,2.945-6.17,5.104c-3.519,1.299-7.148,2.702-10.62,4.067
		c-14.108,5.548-28.632,10.889-42.881,16.654c-20.428,8.265-43.49,16.844-64.538,24.998
		C271.626,206.508,264.275,209.585,257.416,211.963L257.416,211.963z M249.758,216.815c1.748-1.26,34.852-13.706,37.854-14.883
		l75.368-29.248c2.931-1.145,35.535-13.986,37.796-14.481l5.54,13.219c-1.203,0.879-34.372,10.177-39.077,11.507
		c-13.121,3.708-26.02,7.469-39.081,11.272c-12.349,3.596-26.922,8.091-39.09,11.322c-6.642,1.764-13.044,3.748-19.684,5.696
		L249.758,216.815L249.758,216.815z M273.171,211.658c2.049-0.28,7.238-2.022,9.756-2.787c9.705-2.947,19.692-5.51,29.368-8.514
		c13.116-4.071,26.298-7.475,39.377-11.378l49.312-14.257c4.114-1.148,5.913-2.325,10.49-1.942
		c7.719,0.646,15.655,1.193,23.317,1.899l-80.855,18.763c-20.123,4.623-40.667,9.026-60.687,13.797
		c-3.438,0.819-6.851,1.556-10.242,2.323C280.187,210.201,275.8,211.48,273.171,211.658L273.171,211.658z M258.842,216.846
		c1.96-1.136,18.883-4.59,22.614-5.405c7.483-1.636,14.795-3.407,22.39-5.104c15.18-3.391,30.035-6.75,45.207-10.257
		c2.099-0.485,87.548-20.168,90.242-20.464l0.005,12.358L258.842,216.846L258.842,216.846z M437.867,189.771l-1.162,0.91
		c-0.214,0.133-0.672,0.374-0.983,0.558l-17.861,10.345c-7.107,4.008-3.301,3.294-8.869,3.759l-52.063,4.464
		c-15.407,1.244-31.012,2.916-46.414,3.986c-13.948,0.97-33.615,3.453-46.337,3.78L437.867,189.771L437.867,189.771z
		 M413.018,206.564l-0.053,18.103c-2.195,0.311-37.576-0.765-40.964-0.826c-27.063-0.492-54.437-1.488-81.415-1.9
		c-5.61-0.086-37.247-0.352-40.098-1.494L413.018,206.564L413.018,206.564z M437.357,248.728c-15.441-2.03-30.414-4.345-45.819-6.42
		c-30.733-4.14-61.124-8.942-91.707-12.898l-34.257-4.806c-1.939-0.249-3.9-0.549-5.773-0.815c-1.331-0.189-3.708-0.343-4.882-0.835
		l-0.55-0.317c8.201-0.054,36.487,1.889,46.238,2.581c15.202,1.078,30.271,1.714,45.414,2.765
		c30.338,2.107,60.97,3.178,91.306,5.561L437.357,248.728L437.357,248.728z M430.585,231.207c-0.454,0.377,0.702,0.129-0.955,0.357
		c-0.192,0.026-0.701,0.007-0.913-0.003l-13.188-0.838c-15.126-0.929-31.444-2.149-46.35-2.821
		c-18.475-0.833-39.074-2.763-57.316-3.486c-1.114-0.044-2.604,0.015-3.514-0.459c10.527-0.102,21.492,0.309,32.031,0.637
		c23.553,0.734,47.72,0.903,71.113,1.636c2.326,0.073,1.42,0.362,3.128,0.959L430.585,231.207L430.585,231.207z M405.948,276.183
		c-1.304,0.021-35.451-11.368-39.592-12.758c-36.095-12.122-72.956-23.639-108.97-35.715c-2.597-0.871-7.488-2.758-9.655-3.274
		l159.735,33.317C407.882,260.388,406.241,272.514,405.948,276.183L405.948,276.183z M409.139,255.525
		c-1.274,0.452-0.403,0.291-1.039,0.516c-1.356,0.479-14.659-2.708-16.192-3.032c-14.399-3.042-29.105-6.068-43.575-9.132
		l-65.321-13.604c-3.774-0.788-19.501-3.781-21.61-4.685c6.76,0.49,15.085,2.027,22.003,3.013l65.412,9.233
		c14.527,2.05,29.028,4.264,43.666,6.124c4.892,0.622,41.37,5.525,43.075,6.226L409.139,255.525L409.139,255.525z M322.263,366.746
		c0.795,1.345,5.074,8.138,5.22,9.252l-47.859,0.262c-6.608-13.118-33.77-124.088-37.762-138.86l-1.868-6.943
		c-0.374-1.304-0.472-1.522-0.085-2.208l5.402,9.395c2.027,3.199,3.546,6.013,5.489,9.22L322.263,366.746L322.263,366.746z
		 M422.559,306.496c-1.846,0.271-8.346-3.301-10.618-4.353c-16.731-7.747-34.737-16.463-51.279-23.901
		c-5.809-2.612-101.544-47.047-102.684-48.004l21.139,7.733c7.064,2.608,13.958,5.193,20.985,7.852
		c13.53,5.122,28.211,10.252,41.721,15.558c6.887,2.705,14.219,5.201,21.019,7.785c7.137,2.712,13.837,5.216,20.997,7.852
		c6.9,2.541,14.212,5.089,20.996,7.797c6.857,2.737,13.825,4.971,20.728,7.77C425.64,294.486,423.205,304.026,422.559,306.496
		L422.559,306.496z M403.012,306.769c-2.387,0.01-4.848,0.097-7.222,0.066c-2.071-0.027-1.384,0.002-2.745-0.86l-11.128-6.081
		c-5.827-3.074-11.922-6.687-17.854-9.706c-6.058-3.083-11.866-6.645-18.05-9.812l-17.859-9.704
		c-6.458-3.461-11.89-6.575-18.007-9.87c-5.893-3.174-11.804-6.333-17.862-9.691c-7.47-4.14-19.355-10.824-26.774-14.572
		l-8.812-4.93c3.462,1.352,6.887,3.166,10.297,4.726l150.771,70.289L403.012,306.769L403.012,306.769z M392.912,340.805
		c-2.919-1.908-5.851-4.436-8.671-6.592l-60.086-46.699c-3.01-2.407-5.76-4.385-8.637-6.706l-55.869-43.418
		c-1.461-1.1-3.171-2.216-4.167-3.393l36.914,24.216c24.625,16.016,49.115,32.849,73.562,48.574
		c3.128,2.012,6.084,4.036,9.235,6.118c6.557,4.332,4.307,2.006,6.012,5.544C384.348,324.971,389.392,333.906,392.912,340.805
		L392.912,340.805z M392.58,307.62c-2.408,1.942-5.257,3.797-7.831,5.531c-2.569,1.731-2.704,2.453-3.956,1.684l-12.051-8.026
		c-2.571-1.799-5.431-3.56-8.137-5.332c-10.852-7.106-21.625-14.318-32.252-21.299c-3.885-2.552-60.148-39.215-64.397-42.678
		c2.714,1.273,5.587,2.831,8.177,4.336c2.7,1.57,5.381,2.911,8.107,4.428l48.251,26.282c10.771,5.82,21.379,11.557,32.229,17.574
		l24.149,13.099C386.449,304.02,391.677,306.745,392.58,307.62L392.58,307.62z M353.059,263.928
		c-11.797-4.188-23.22-8.802-35.167-13.071c-3.086-1.103-5.746-2.092-8.876-3.343c-7.793-3.114-18.468-6.579-25.88-9.653
		c2.426,0.435,14.8,4.735,18.171,5.828c17.863,5.787,36.95,12.429,54.477,17.849c12.234,3.783,24.254,8.276,36.312,11.907
		c2.977,0.896,6.417,2.029,9.175,2.988c1.444,0.503,3.287,0.903,4.451,1.521l17.631,12.051L353.059,263.928L353.059,263.928z
		 M362.637,386.613c-1.235-1.041-9.83-12.791-11.994-15.658c-3.998-5.298-7.703-10.267-11.716-15.529
		c-5.157-6.761-12.546-17.024-17.683-23.346c-1.028-1.265-2.006-2.703-2.919-3.961L303.77,308.85
		c-1.858-2.47-4.036-5.155-5.961-7.829l-29.088-38.669c1.758,2.528,6.667,7.86,9.274,11.194l9.319,11.353
		c1.129,1.332,1.959,2.385,3.114,3.768c0.61,0.73,0.791,1.074,1.521,1.924l38.269,46.598c2.232,2.627,4.008,4.979,6.203,7.581
		c1.049,1.244,1.991,2.445,3.095,3.788l9.175,11.19c2.023,2.535,4.047,4.985,6.07,7.39c1.082,1.286,1.949,2.303,3.131,3.765
		c3.78,4.676,4.843,4.663,4.813,9.059C362.69,382.178,362.74,384.399,362.637,386.613L362.637,386.613z M412.811,377.052
		c0.23,4.481,0.06,9.344,0.089,13.872c0.022,3.409,0.48,3.439-1.182,5.578l-9.109,11.876c-7.992,11.084-19.08,24.139-27.122,35.201
		c-2.986,4.107-2.378,2.114-1.864,4.39c12.766,0.086,26.546-0.399,39.135-0.111l-0.153,10.561l-52.073,0.296l0.015-10.796
		c-0.012-3.503-0.122-2.986,1.649-5.115c2.184-2.625,4.001-4.935,6.209-7.572c4.387-5.237,14.003-16.767,18.558-22.78
		c3.62-4.779,8.638-10.319,12.375-15.179c1.519-1.976,4.041-3.753,3.158-6.781l-0.736-2.792l-2.192-0.011
		c-10.273-0.065-26.458,0.625-35.43,0.208l0.132-10.629l21.205-0.16L412.811,377.052L412.811,377.052z M328.293,377.623
		l-0.039,12.197l-16.06,0.082c-0.515,0.099-0.91,0.716-1.376,1.021l-0.156,68.151l-13.698,0.042l0.195-70.238l-17.514,0.077
		l0.025-11.157L328.293,377.623L328.293,377.623z M358.749,444.863c0.609,1.508,0.357,9.495,0.236,11.709
		c-0.363-1.189-3.609-6.388-4.503-8.027l-20.444-36.859c-1.896-3.466-10.64-18.473-11.141-20.319l3.913-0.021L358.749,444.863
		L358.749,444.863z M234.658,452.617c0.026-23.686-0.249-49.375,0.106-72.655l0.07-2.365l14.106-0.1
		c0.468,21.052-0.037,47.46-0.067,69.17l-0.043,12.791l-14.177,0.154L234.658,452.617L234.658,452.617z"/>
	<path style="fill-rule:evenodd;clip-rule:evenodd;fill:#312782;" d="M431.965,32.021c15.483,0,28.035,12.552,28.035,28.035
		c0,15.483-12.552,28.035-28.035,28.035c-15.483,0-28.035-12.552-28.035-28.035C403.931,44.572,416.482,32.021,431.965,32.021
		L431.965,32.021z M431.965,35.939c13.319,0,24.116,10.797,24.116,24.117c0,13.319-10.797,24.117-24.116,24.117
		c-13.319,0-24.117-10.797-24.117-24.117C407.849,46.736,418.646,35.939,431.965,35.939L431.965,35.939z"/>
</g>
</svg>
